<?xml version="1.0" standalone="no"?>
<!DOCTYPE svg PUBLIC "-//W3C//DTD SVG 20010904//EN"
 "http://www.w3.org/TR/2001/REC-SVG-20010904/DTD/svg10.dtd">
<svg version="1.0" xmlns="http://www.w3.org/2000/svg"
 width="768.000000pt" height="768.000000pt" viewBox="0 0 768.000000 768.000000"
 preserveAspectRatio="xMidYMid meet">
<metadata>
Created by potrace 1.14, written by Peter Selinger 2001-2017
</metadata>
<g transform="translate(0.000000,768.000000) scale(0.100000,-0.100000)"
fill="#000000" stroke="none">
<path d="M73 7659 c9 -14 6 -22 -14 -38 -14 -12 -18 -20 -10 -21 20 0 5 -49
-25 -78 -16 -17 -24 -36 -24 -60 0 -35 0 -35 18 -16 24 27 52 71 52 84 0 6 7
27 17 48 9 20 17 52 19 69 2 29 0 32 -20 31 -20 -2 -22 -5 -13 -19z"/>
<path d="M1530 7672 c0 -4 9 -8 19 -8 11 0 17 4 15 8 -3 4 -12 8 -20 8 -8 0
-14 -4 -14 -8z"/>
<path d="M3625 7563 c-1 -65 -4 -197 -8 -293 -9 -225 -9 -222 3 -234 6 -6 10
-8 11 -5 0 2 3 33 6 69 2 36 8 67 12 70 16 11 21 43 9 57 -15 18 -22 280 -7
288 5 4 9 1 9 -6 0 -7 3 -10 6 -6 3 3 2 12 -2 19 -5 7 -7 46 -5 86 2 64 1 72
-16 72 -16 0 -18 -10 -18 -117z"/>
<path d="M3712 7650 c0 -19 2 -27 5 -17 2 9 2 25 0 35 -3 9 -5 1 -5 -18z"/>
<path d="M5756 7671 c-3 -5 1 -11 9 -14 9 -4 12 -1 8 9 -6 16 -10 17 -17 5z"/>
<path d="M7004 7628 c4 -28 16 -88 27 -132 11 -45 30 -121 41 -171 19 -85 38
-130 38 -92 0 9 3 16 8 15 8 -1 39 9 64 23 20 10 31 -2 22 -25 -4 -9 -1 -16 6
-16 6 0 14 9 17 20 6 23 7 23 31 11 35 -18 92 -32 103 -25 6 3 9 15 6 25 -3
12 0 19 9 19 8 0 14 -9 14 -19 0 -10 7 -22 16 -25 19 -7 64 21 64 40 0 22 -17
16 -23 -7 -7 -27 -24 -17 -24 15 0 28 45 56 57 35 5 -6 13 -8 20 -4 9 5 11 4
6 -4 -6 -8 -1 -10 17 -6 32 8 45 -12 21 -30 -18 -14 -18 -14 4 -15 13 0 22 -6
22 -16 0 -14 3 -14 15 -4 9 7 19 10 22 6 4 -4 1 -12 -7 -17 -13 -9 -12 -10 2
-5 10 3 20 1 24 -5 3 -6 12 -8 20 -5 7 3 18 -3 23 -12 7 -12 10 61 11 231 l0
247 -90 0 c-78 0 -89 -2 -83 -16 7 -18 -18 -36 -54 -40 -20 -2 -21 0 -10 16 7
13 15 16 21 10 16 -16 26 -12 26 10 0 18 -7 20 -74 20 -66 0 -75 -2 -81 -20
-7 -21 -26 -25 -96 -21 -37 2 -61 -21 -37 -35 7 -5 8 -2 3 6 -6 9 -4 11 5 5
10 -6 7 -12 -11 -26 -21 -16 -24 -16 -35 -1 -7 10 -9 21 -4 26 5 5 6 15 3 22
-3 8 -1 14 4 14 5 0 18 7 29 15 17 13 8 14 -90 15 l-109 0 7 -52z m359 -39
c-13 -13 -55 -8 -60 8 -3 6 8 13 24 15 33 4 52 -7 36 -23z m253 -16 c-10 -10
-19 5 -10 18 6 11 8 11 12 0 2 -7 1 -15 -2 -18z m-86 -68 c0 -16 -6 -25 -15
-25 -16 0 -20 -18 -7 -36 12 -17 39 -23 51 -11 6 6 11 7 11 2 0 -6 -11 -18
-24 -27 -23 -17 -25 -17 -40 7 -9 13 -16 29 -16 35 0 5 -10 10 -22 10 -16 0
-19 3 -11 11 6 6 9 18 6 26 -4 11 0 13 21 7 20 -5 26 -2 26 10 0 9 5 16 10 16
6 0 10 -11 10 -25z m140 -4 c0 -26 -16 -35 -24 -15 -10 25 -7 34 9 34 8 0 15
-9 15 -19z m-8 -103 c-7 -7 -12 -8 -12 -2 0 14 12 26 19 19 2 -3 -1 -11 -7
-17z"/>
<path d="M158 7663 c-2 -5 -3 -18 -3 -30 0 -34 19 -28 21 7 2 27 -10 41 -18
23z"/>
<path d="M1755 7660 c-4 -7 -1 -16 6 -21 17 -10 26 8 11 23 -6 6 -12 6 -17 -2z"/>
<path d="M6602 7656 c7 -8 15 -12 17 -11 5 6 -10 25 -20 25 -5 0 -4 -6 3 -14z"/>
<path d="M27 7654 c-8 -8 1 -24 14 -24 5 0 9 7 9 15 0 15 -12 20 -23 9z"/>
<path d="M4230 7656 c0 -2 7 -9 15 -16 12 -10 15 -10 15 4 0 9 -7 16 -15 16
-8 0 -15 -2 -15 -4z"/>
<path d="M5156 7633 c-6 -14 -5 -15 5 -6 7 7 10 15 7 18 -3 3 -9 -2 -12 -12z"/>
<path d="M5640 7639 c0 -5 5 -7 10 -4 6 3 10 8 10 11 0 2 -4 4 -10 4 -5 0 -10
-5 -10 -11z"/>
<path d="M673 7625 c-3 -9 -3 -18 -1 -21 3 -3 8 4 11 16 6 23 -1 27 -10 5z"/>
<path d="M1686 7624 c-4 -9 -4 -19 -1 -22 2 -3 7 3 11 12 4 9 4 19 1 22 -2 3
-7 -3 -11 -12z"/>
<path d="M117 7593 c-6 -33 -5 -35 17 -27 20 8 21 28 2 43 -11 9 -15 6 -19
-16z"/>
<path d="M2595 7610 c3 -5 1 -10 -4 -10 -6 0 -11 -7 -11 -15 0 -8 5 -15 10
-15 6 0 10 4 10 9 0 5 3 16 6 25 3 9 1 16 -6 16 -6 0 -8 -4 -5 -10z"/>
<path d="M5525 7610 c-3 -5 1 -10 9 -10 9 0 16 5 16 10 0 6 -4 10 -9 10 -6 0
-13 -4 -16 -10z"/>
<path d="M6480 7604 c0 -8 5 -12 10 -9 6 4 8 11 5 16 -9 14 -15 11 -15 -7z"/>
<path d="M6810 7610 c0 -5 5 -10 10 -10 6 0 10 5 10 10 0 6 -4 10 -10 10 -5 0
-10 -4 -10 -10z"/>
<path d="M843 7603 c-20 -8 -15 -23 7 -23 11 0 20 7 20 15 0 15 -6 17 -27 8z"/>
<path d="M6960 7599 c0 -5 5 -7 10 -4 6 3 10 8 10 11 0 2 -4 4 -10 4 -5 0 -10
-5 -10 -11z"/>
<path d="M0 7576 c0 -14 5 -28 11 -31 16 -10 23 3 11 18 -9 10 -8 17 0 25 9 9
8 12 -5 12 -11 0 -17 -8 -17 -24z"/>
<path d="M1721 7586 c-10 -12 -9 -20 4 -40 11 -16 13 -26 6 -26 -6 0 -11 -7
-11 -16 0 -10 6 -14 15 -11 8 4 17 2 20 -3 11 -18 25 -10 25 13 0 12 1 33 1
45 0 13 -8 30 -18 38 -23 17 -28 17 -42 0z"/>
<path d="M5695 7590 c-3 -5 -1 -10 4 -10 6 0 11 5 11 10 0 6 -2 10 -4 10 -3 0
-8 -4 -11 -10z"/>
<path d="M2790 7575 c7 -9 15 -13 17 -11 7 7 -7 26 -19 26 -6 0 -6 -6 2 -15z"/>
<path d="M4278 7583 c7 -3 16 -2 19 1 4 3 -2 6 -13 5 -11 0 -14 -3 -6 -6z"/>
<path d="M4430 7580 c0 -5 5 -10 11 -10 5 0 7 5 4 10 -3 6 -8 10 -11 10 -2 0
-4 -4 -4 -10z"/>
<path d="M6680 7578 c0 -9 5 -20 11 -23 17 -11 18 -2 3 19 -12 17 -14 17 -14
4z"/>
<path d="M6810 7580 c0 -5 7 -10 16 -10 8 0 12 5 9 10 -3 6 -10 10 -16 10 -5
0 -9 -4 -9 -10z"/>
<path d="M1050 7571 c0 -5 5 -13 10 -16 6 -3 10 -2 10 4 0 5 -4 13 -10 16 -5
3 -10 2 -10 -4z"/>
<path d="M3115 7570 c3 -5 8 -10 11 -10 2 0 4 5 4 10 0 6 -5 10 -11 10 -5 0
-7 -4 -4 -10z"/>
<path d="M657 7563 c-4 -3 -7 -13 -7 -22 1 -13 3 -13 11 2 11 19 8 33 -4 20z"/>
<path d="M6870 7555 c-7 -8 -9 -15 -6 -15 4 0 14 7 22 15 9 8 11 15 6 15 -5 0
-15 -7 -22 -15z"/>
<path d="M2580 7526 c0 -30 3 -34 25 -32 29 1 31 8 9 41 -22 34 -34 31 -34 -9z"/>
<path d="M3185 7550 c3 -5 11 -10 16 -10 6 0 7 5 4 10 -3 6 -11 10 -16 10 -6
0 -7 -4 -4 -10z"/>
<path d="M5083 7545 c10 -7 24 -20 30 -29 8 -11 17 -13 27 -6 13 8 11 12 -7
30 -12 11 -32 20 -45 20 -22 -1 -22 -1 -5 -15z"/>
<path d="M6755 7550 c3 -5 11 -10 16 -10 6 0 7 5 4 10 -3 6 -11 10 -16 10 -6
0 -7 -4 -4 -10z"/>
<path d="M3310 7539 c0 -5 5 -7 10 -4 6 3 10 8 10 11 0 2 -4 4 -10 4 -5 0 -10
-5 -10 -11z"/>
<path d="M90 7530 c0 -5 5 -10 11 -10 5 0 7 5 4 10 -3 6 -8 10 -11 10 -2 0 -4
-4 -4 -10z"/>
<path d="M1517 7526 c-4 -10 -5 -21 -2 -24 9 -9 17 6 13 25 -3 17 -4 17 -11
-1z"/>
<path d="M1675 7530 c-3 -5 -1 -10 4 -10 6 0 11 5 11 10 0 6 -2 10 -4 10 -3 0
-8 -4 -11 -10z"/>
<path d="M5973 7525 c-8 -22 6 -33 17 -15 13 20 12 30 0 30 -6 0 -13 -7 -17
-15z"/>
<path d="M6922 7526 c7 -8 15 -12 17 -11 5 6 -10 25 -20 25 -5 0 -4 -6 3 -14z"/>
<path d="M4481 7504 c0 -11 3 -14 6 -6 3 7 2 16 -1 19 -3 4 -6 -2 -5 -13z"/>
<path d="M4756 7505 c-3 -8 -1 -15 4 -15 6 0 10 7 10 15 0 8 -2 15 -4 15 -2 0
-6 -7 -10 -15z"/>
<path d="M6896 7512 c-7 -12 19 -35 34 -30 7 2 3 11 -8 21 -11 10 -23 14 -26
9z"/>
<path d="M4160 7500 c0 -5 4 -10 9 -10 6 0 13 5 16 10 3 6 -1 10 -9 10 -9 0
-16 -4 -16 -10z"/>
<path d="M5210 7500 c0 -5 5 -10 11 -10 5 0 7 5 4 10 -3 6 -8 10 -11 10 -2 0
-4 -4 -4 -10z"/>
<path d="M5650 7485 c0 -8 9 -15 20 -15 11 0 20 7 20 15 0 8 -9 15 -20 15 -11
0 -20 -7 -20 -15z"/>
<path d="M85 7480 c3 -5 11 -10 16 -10 6 0 7 5 4 10 -3 6 -11 10 -16 10 -6 0
-7 -4 -4 -10z"/>
<path d="M1660 7470 c0 -5 5 -10 10 -10 6 0 10 5 10 10 0 6 -4 10 -10 10 -5 0
-10 -4 -10 -10z"/>
<path d="M2584 7467 c-9 -24 6 -44 18 -22 7 11 6 21 -1 28 -7 7 -12 6 -17 -6z"/>
<path d="M6985 7428 c1 -29 5 -63 9 -75 5 -16 3 -23 -5 -23 -10 0 -10 -3 -1
-12 17 -17 15 -28 -5 -28 -15 0 -15 -1 2 -13 11 -9 15 -19 10 -27 -5 -7 2 -21
19 -35 l26 -22 -23 -27 -23 -27 17 -67 c17 -67 17 -67 52 -66 27 1 38 -5 50
-25 20 -32 21 -15 3 41 -8 24 -22 79 -31 123 -10 44 -23 98 -30 120 -7 22 -23
79 -36 127 -13 49 -27 88 -30 88 -4 0 -6 -24 -4 -52z m80 -267 c3 -5 1 -12 -5
-16 -5 -3 -10 1 -10 9 0 18 6 21 15 7z m-8 -68 c-15 -14 -39 24 -32 48 8 24 8
23 23 -8 9 -18 12 -36 9 -40z m33 -37 c-1 -12 -24 -46 -32 -46 -5 0 -3 59 1
67 4 7 31 -11 31 -21z"/>
<path d="M1726 7454 c-16 -43 3 -74 23 -36 6 12 5 23 -4 35 -11 16 -13 16 -19
1z"/>
<path d="M4031 7454 c0 -11 3 -14 6 -6 3 7 2 16 -1 19 -3 4 -6 -2 -5 -13z"/>
<path d="M6620 7456 c0 -9 5 -16 10 -16 6 0 10 4 10 9 0 6 -4 13 -10 16 -5 3
-10 -1 -10 -9z"/>
<path d="M6695 7460 c3 -5 10 -10 16 -10 5 0 9 5 9 10 0 6 -7 10 -16 10 -8 0
-12 -4 -9 -10z"/>
<path d="M1585 7446 c-18 -13 -18 -14 2 -25 17 -8 22 -8 27 5 14 36 3 44 -29
20z"/>
<path d="M2116 7452 c-3 -6 -1 -14 5 -18 9 -5 6 -11 -7 -21 -18 -13 -18 -15
-2 -27 10 -7 15 -15 12 -18 -8 -8 54 -18 71 -12 8 4 15 13 15 21 0 15 -38 52
-54 53 -5 0 -14 7 -21 17 -8 10 -14 12 -19 5z"/>
<path d="M2540 7447 c0 -7 7 -22 16 -33 14 -17 15 -17 10 -1 -3 10 -6 25 -6
33 0 8 -4 14 -10 14 -5 0 -10 -6 -10 -13z"/>
<path d="M3507 7454 c-8 -8 3 -34 14 -34 11 0 12 27 0 34 -4 3 -11 3 -14 0z"/>
<path d="M3205 7431 c-3 -5 -1 -12 5 -16 5 -3 10 1 10 9 0 18 -6 21 -15 7z"/>
<path d="M6700 7430 c0 -5 5 -10 10 -10 6 0 10 5 10 10 0 6 -4 10 -10 10 -5 0
-10 -4 -10 -10z"/>
<path d="M6817 7425 c-5 -10 0 -15 14 -15 12 0 19 5 17 12 -6 18 -25 20 -31 3z"/>
<path d="M1020 7410 c0 -5 7 -10 16 -10 8 0 12 5 9 10 -3 6 -10 10 -16 10 -5
0 -9 -4 -9 -10z"/>
<path d="M1950 7411 c0 -5 -10 -11 -22 -13 -14 -2 -24 -11 -26 -23 -3 -18 -2
-18 10 -4 12 15 17 15 47 3 42 -18 46 -18 32 0 -6 8 -10 20 -9 27 2 7 -5 15
-14 17 -10 2 -18 -1 -18 -7z"/>
<path d="M3930 7410 c0 -5 5 -10 10 -10 6 0 10 5 10 10 0 6 -4 10 -10 10 -5 0
-10 -4 -10 -10z"/>
<path d="M2590 7394 c0 -8 -4 -12 -10 -9 -5 3 -10 -1 -10 -9 0 -9 5 -16 10
-16 6 0 10 -13 10 -30 0 -34 15 -40 25 -10 8 24 -4 90 -16 90 -5 0 -9 -7 -9
-16z"/>
<path d="M4661 7394 c0 -11 3 -14 6 -6 3 7 2 16 -1 19 -3 4 -6 -2 -5 -13z"/>
<path d="M5090 7394 c0 -8 5 -12 10 -9 6 3 10 10 10 16 0 5 -4 9 -10 9 -5 0
-10 -7 -10 -16z"/>
<path d="M6945 7400 c-3 -5 -1 -10 4 -10 6 0 11 5 11 10 0 6 -2 10 -4 10 -3 0
-8 -4 -11 -10z"/>
<path d="M2010 7390 c0 -5 7 -10 16 -10 8 0 12 5 9 10 -3 6 -10 10 -16 10 -5
0 -9 -4 -9 -10z"/>
<path d="M2230 7386 c0 -9 5 -16 10 -16 6 0 10 4 10 9 0 6 -4 13 -10 16 -5 3
-10 -1 -10 -9z"/>
<path d="M2755 7390 c-3 -5 -1 -10 4 -10 6 0 11 5 11 10 0 6 -2 10 -4 10 -3 0
-8 -4 -11 -10z"/>
<path d="M5420 7390 c-12 -8 -10 -10 8 -10 13 0 20 4 17 10 -7 12 -6 12 -25 0z"/>
<path d="M5730 7390 c0 -5 5 -10 10 -10 6 0 10 5 10 10 0 6 -4 10 -10 10 -5 0
-10 -4 -10 -10z"/>
<path d="M6630 7390 c0 -5 5 -10 10 -10 6 0 10 5 10 10 0 6 -4 10 -10 10 -5 0
-10 -4 -10 -10z"/>
<path d="M770 7354 c0 -8 32 -33 43 -34 4 0 -2 9 -13 20 -21 21 -30 25 -30 14z"/>
<path d="M1581 7338 c-6 -17 -5 -24 5 -26 16 -4 18 -18 4 -27 -6 -4 -8 -11 -4
-16 9 -15 -46 -81 -62 -75 -31 12 -42 -56 -13 -85 11 -11 17 -24 14 -29 -4 -6
-1 -10 4 -10 6 0 16 9 23 19 6 10 18 17 25 14 7 -3 14 1 14 8 4 43 18 79 31
79 5 0 7 -8 4 -17 -10 -26 -19 -103 -12 -103 20 0 45 36 40 57 -5 19 -3 22 12
16 14 -5 16 -3 11 11 -4 10 -7 19 -7 22 0 2 -7 1 -15 -2 -16 -6 -19 4 -9 30 3
9 10 13 15 10 16 -10 22 27 9 52 -19 35 -28 30 -36 -21 -10 -68 -30 -52 -26
21 1 32 5 67 8 77 8 26 -25 21 -35 -5z m-21 -193 c11 -13 8 -15 -14 -15 -25 0
-33 10 -19 23 10 11 19 8 33 -8z"/>
<path d="M2750 7350 c0 -5 5 -10 11 -10 5 0 7 5 4 10 -3 6 -8 10 -11 10 -2 0
-4 -4 -4 -10z"/>
<path d="M3755 7350 c3 -5 8 -10 11 -10 2 0 4 5 4 10 0 6 -5 10 -11 10 -5 0
-7 -4 -4 -10z"/>
<path d="M4572 7340 c0 -14 2 -19 5 -12 2 6 2 18 0 25 -3 6 -5 1 -5 -13z"/>
<path d="M1005 7330 c3 -5 8 -10 11 -10 2 0 4 5 4 10 0 6 -5 10 -11 10 -5 0
-7 -4 -4 -10z"/>
<path d="M1645 7329 c-4 -6 -5 -12 -2 -15 2 -3 7 2 10 11 7 17 1 20 -8 4z"/>
<path d="M3360 7330 c0 -5 5 -10 11 -10 5 0 7 5 4 10 -3 6 -8 10 -11 10 -2 0
-4 -4 -4 -10z"/>
<path d="M4070 7330 c0 -5 7 -10 16 -10 8 0 12 5 9 10 -3 6 -10 10 -16 10 -5
0 -9 -4 -9 -10z"/>
<path d="M4120 7329 c0 -5 5 -7 10 -4 6 3 10 8 10 11 0 2 -4 4 -10 4 -5 0 -10
-5 -10 -11z"/>
<path d="M4671 7324 c0 -11 3 -14 6 -6 3 7 2 16 -1 19 -3 4 -6 -2 -5 -13z"/>
<path d="M310 7320 c0 -5 5 -10 10 -10 6 0 10 5 10 10 0 6 -4 10 -10 10 -5 0
-10 -4 -10 -10z"/>
<path d="M3310 7310 c0 -5 5 -10 10 -10 6 0 10 5 10 10 0 6 -4 10 -10 10 -5 0
-10 -4 -10 -10z"/>
<path d="M3662 7300 c0 -14 2 -19 5 -12 2 6 2 18 0 25 -3 6 -5 1 -5 -13z"/>
<path d="M6480 7310 c20 -13 33 -13 25 0 -3 6 -14 10 -23 10 -15 0 -15 -2 -2
-10z"/>
<path d="M1702 7245 c3 -57 5 -65 23 -65 18 -1 19 -1 3 -11 -24 -13 -23 -28 1
-22 24 6 35 31 21 48 -7 8 -8 33 -4 64 6 50 6 51 -20 51 -26 0 -26 -1 -24 -65z"/>
<path d="M6702 7301 c2 -7 7 -12 11 -12 12 1 9 15 -3 20 -7 2 -11 -2 -8 -8z"/>
<path d="M6801 7294 c0 -11 3 -14 6 -6 3 7 2 16 -1 19 -3 4 -6 -2 -5 -13z"/>
<path d="M2540 7285 c0 -8 4 -15 9 -15 5 0 11 7 15 15 3 9 0 15 -9 15 -8 0
-15 -7 -15 -15z"/>
<path d="M1905 7280 c-3 -5 1 -10 10 -10 9 0 13 5 10 10 -3 6 -8 10 -10 10 -2
0 -7 -4 -10 -10z"/>
<path d="M1546 7266 c3 -9 11 -16 16 -16 13 0 5 23 -10 28 -7 2 -10 -2 -6 -12z"/>
<path d="M4466 7271 c-3 -5 4 -11 16 -14 30 -8 35 -1 9 12 -11 6 -22 7 -25 2z"/>
<path d="M4670 7261 c0 -23 16 -36 23 -18 2 6 -2 18 -9 25 -12 11 -14 9 -14
-7z"/>
<path d="M3700 7260 c0 -5 5 -10 10 -10 6 0 10 5 10 10 0 6 -4 10 -10 10 -5 0
-10 -4 -10 -10z"/>
<path d="M1120 7245 c0 -8 5 -15 10 -15 6 0 10 7 10 15 0 8 -4 15 -10 15 -5 0
-10 -7 -10 -15z"/>
<path d="M2532 7248 c2 -5 8 -9 13 -9 5 0 11 4 13 9 1 5 -4 9 -13 9 -9 0 -14
-4 -13 -9z"/>
<path d="M4 7238 c-4 -6 1 -15 10 -20 9 -5 16 -18 16 -28 0 -11 4 -20 8 -20 4
0 8 15 8 34 0 25 -5 36 -18 39 -10 3 -21 0 -24 -5z"/>
<path d="M1510 7240 c0 -6 7 -10 15 -10 8 0 15 2 15 4 0 2 -7 6 -15 10 -8 3
-15 1 -15 -4z"/>
<path d="M5981 7229 c-23 -19 -23 -19 -2 -19 12 0 24 7 28 15 9 24 0 25 -26 4z"/>
<path d="M6396 7224 c-9 -24 -8 -26 14 -14 11 6 18 15 15 21 -9 14 -22 11 -29
-7z"/>
<path d="M1346 7221 c-3 -5 1 -11 9 -15 8 -3 15 -1 15 4 0 13 -18 22 -24 11z"/>
<path d="M4670 7200 c0 -19 3 -21 12 -12 9 9 9 15 0 24 -9 9 -12 7 -12 -12z"/>
<path d="M7150 7210 c0 -5 5 -10 11 -10 5 0 7 5 4 10 -3 6 -8 10 -11 10 -2 0
-4 -4 -4 -10z"/>
<path d="M7235 7211 c-3 -5 -2 -12 3 -15 5 -3 9 1 9 9 0 17 -3 19 -12 6z"/>
<path d="M7420 7210 c0 -5 5 -10 10 -10 6 0 10 5 10 10 0 6 -4 10 -10 10 -5 0
-10 -4 -10 -10z"/>
<path d="M7481 7204 c0 -11 3 -14 6 -6 3 7 2 16 -1 19 -3 4 -6 -2 -5 -13z"/>
<path d="M2547 7190 c-4 -16 -2 -29 6 -35 9 -6 11 -19 7 -35 -4 -14 -4 -34 0
-45 7 -19 7 -19 19 3 13 25 9 90 -6 100 -5 4 -12 14 -15 22 -3 10 -7 6 -11
-10z"/>
<path d="M3430 7189 c0 -5 5 -7 10 -4 6 3 10 8 10 11 0 2 -4 4 -10 4 -5 0 -10
-5 -10 -11z"/>
<path d="M7313 7174 c-21 -23 -21 -24 -2 -24 10 0 19 7 19 15 0 18 17 20 22 4
2 -7 9 -10 15 -8 6 2 1 11 -11 20 -21 16 -23 16 -43 -7z"/>
<path d="M7596 7183 c-6 -14 -5 -15 5 -6 7 7 10 15 7 18 -3 3 -9 -2 -12 -12z"/>
<path d="M6905 7180 c3 -5 11 -10 16 -10 6 0 7 5 4 10 -3 6 -11 10 -16 10 -6
0 -7 -4 -4 -10z"/>
<path d="M7110 7180 c0 -5 5 -10 10 -10 6 0 10 5 10 10 0 6 -4 10 -10 10 -5 0
-10 -4 -10 -10z"/>
<path d="M7150 7166 c0 -16 4 -25 10 -21 12 7 40 -12 40 -27 0 -5 -9 -6 -20
-3 -11 3 -20 2 -20 -3 0 -5 11 -12 24 -14 20 -4 28 1 40 26 16 33 13 48 -9 40
-7 -3 -25 2 -39 11 -26 17 -26 17 -26 -9z"/>
<path d="M7436 7173 c-6 -14 -5 -15 5 -6 7 7 10 15 7 18 -3 3 -9 -2 -12 -12z"/>
<path d="M4590 7163 c0 -4 5 -15 10 -23 8 -13 10 -13 10 2 0 9 -4 20 -10 23
-5 3 -10 3 -10 -2z"/>
<path d="M7517 7156 c-3 -8 2 -16 14 -19 17 -5 18 -3 7 11 -7 9 -13 18 -14 20
-1 2 -4 -4 -7 -12z"/>
<path d="M4632 7140 c0 -14 2 -19 5 -12 2 6 2 18 0 25 -3 6 -5 1 -5 -13z"/>
<path d="M4707 7154 c-4 -4 -7 -14 -7 -23 0 -11 3 -12 11 -4 6 6 10 16 7 23
-2 6 -7 8 -11 4z"/>
<path d="M6216 7146 c3 -9 11 -16 16 -16 13 0 5 23 -10 28 -7 2 -10 -2 -6 -12z"/>
<path d="M4760 7141 c0 -5 5 -13 10 -16 6 -3 10 -2 10 4 0 5 -4 13 -10 16 -5
3 -10 2 -10 -4z"/>
<path d="M6880 7140 c-9 -6 -10 -10 -3 -10 6 0 15 5 18 10 8 12 4 12 -15 0z"/>
<path d="M7590 7130 c0 -5 5 -10 10 -10 6 0 10 5 10 10 0 6 -4 10 -10 10 -5 0
-10 -4 -10 -10z"/>
<path d="M3710 7119 c0 -5 5 -7 10 -4 6 3 10 8 10 11 0 2 -4 4 -10 4 -5 0 -10
-5 -10 -11z"/>
<path d="M5983 7113 c9 -9 19 -14 23 -11 10 10 -6 28 -24 28 -15 0 -15 -1 1
-17z"/>
<path d="M836 7105 c-16 -12 -17 -15 -4 -15 9 0 18 7 22 15 7 18 6 18 -18 0z"/>
<path d="M2660 7111 c0 -6 4 -13 10 -16 6 -3 7 1 4 9 -7 18 -14 21 -14 7z"/>
<path d="M7633 7113 c-7 -3 -13 -9 -13 -14 0 -6 5 -7 11 -3 6 3 15 0 20 -7 5
-8 9 -9 9 -4 0 18 -15 32 -27 28z"/>
<path d="M1270 7101 c0 -5 5 -13 10 -16 6 -3 10 -2 10 4 0 5 -4 13 -10 16 -5
3 -10 2 -10 -4z"/>
<path d="M4597 7090 c-4 -14 -5 -34 -3 -45 3 -11 5 -22 5 -24 1 -3 5 -1 10 5
5 5 6 27 2 49 -7 36 -8 38 -14 15z"/>
<path d="M5401 7101 c-10 -6 -11 -13 -3 -27 10 -18 11 -18 17 -2 10 25 3 39
-14 29z"/>
<path d="M5530 7101 c0 -6 5 -13 10 -16 6 -3 10 1 10 9 0 9 -4 16 -10 16 -5 0
-10 -4 -10 -9z"/>
<path d="M1460 7078 c0 -19 2 -20 10 -8 13 19 13 30 0 30 -5 0 -10 -10 -10
-22z"/>
<path d="M1008 7065 c2 -15 11 -25 21 -24 10 0 11 2 4 6 -7 2 -13 11 -13 18 0
8 -4 16 -9 19 -4 3 -6 -6 -3 -19z"/>
<path d="M1554 7074 c-5 -8 -18 -16 -28 -18 -40 -6 -27 -24 16 -22 67 2 84 22
39 45 -12 7 -20 5 -27 -5z"/>
<path d="M1980 7080 c0 -5 5 -10 11 -10 5 0 7 5 4 10 -3 6 -8 10 -11 10 -2 0
-4 -4 -4 -10z"/>
<path d="M2625 7081 c-3 -5 -1 -12 5 -16 5 -3 10 1 10 9 0 18 -6 21 -15 7z"/>
<path d="M3163 7076 c-10 -11 -9 -15 2 -20 10 -4 15 1 15 14 0 23 -1 24 -17 6z"/>
<path d="M730 7070 c0 -7 24 -20 36 -20 13 0 1 19 -16 23 -11 3 -20 2 -20 -3z"/>
<path d="M2180 7070 c0 -5 5 -10 11 -10 5 0 7 5 4 10 -3 6 -8 10 -11 10 -2 0
-4 -4 -4 -10z"/>
<path d="M3656 7058 c-3 -13 -1 -27 4 -32 7 -7 10 1 10 22 0 37 -5 41 -14 10z"/>
<path d="M4096 7073 c-11 -11 -6 -23 9 -23 8 0 15 4 15 9 0 13 -16 22 -24 14z"/>
<path d="M4815 7070 c-3 -5 -1 -10 4 -10 6 0 11 5 11 10 0 6 -2 10 -4 10 -3 0
-8 -4 -11 -10z"/>
<path d="M6645 7070 c3 -5 11 -10 16 -10 6 0 7 5 4 10 -3 6 -11 10 -16 10 -6
0 -7 -4 -4 -10z"/>
<path d="M828 7063 c7 -3 16 -2 19 1 4 3 -2 6 -13 5 -11 0 -14 -3 -6 -6z"/>
<path d="M4630 7048 c0 -16 5 -28 10 -28 13 0 13 20 0 40 -8 12 -10 9 -10 -12z"/>
<path d="M4717 7051 c-3 -14 -1 -18 9 -14 8 3 14 11 14 19 0 21 -17 17 -23 -5z"/>
<path d="M5960 7055 c-7 -9 -8 -15 -2 -15 5 0 12 7 16 15 3 8 4 15 2 15 -2 0
-9 -7 -16 -15z"/>
<path d="M7340 7054 c0 -8 5 -12 10 -9 6 4 8 11 5 16 -9 14 -15 11 -15 -7z"/>
<path d="M2860 7050 c0 -5 5 -10 11 -10 5 0 7 5 4 10 -3 6 -8 10 -11 10 -2 0
-4 -4 -4 -10z"/>
<path d="M3521 7046 c-10 -12 -8 -13 8 -9 12 3 18 9 15 14 -7 12 -10 11 -23
-5z"/>
<path d="M6030 7050 c0 -5 5 -10 11 -10 5 0 7 5 4 10 -3 6 -8 10 -11 10 -2 0
-4 -4 -4 -10z"/>
<path d="M1975 7040 c3 -5 8 -10 11 -10 2 0 4 5 4 10 0 6 -5 10 -11 10 -5 0
-7 -4 -4 -10z"/>
<path d="M2560 7041 c0 -6 5 -13 10 -16 6 -3 10 1 10 9 0 9 -4 16 -10 16 -5 0
-10 -4 -10 -9z"/>
<path d="M4940 7040 c0 -5 5 -10 10 -10 6 0 10 5 10 10 0 6 -4 10 -10 10 -5 0
-10 -4 -10 -10z"/>
<path d="M6595 7040 c-3 -5 -1 -10 4 -10 6 0 11 5 11 10 0 6 -2 10 -4 10 -3 0
-8 -4 -11 -10z"/>
<path d="M2718 7033 c7 -3 16 -2 19 1 4 3 -2 6 -13 5 -11 0 -14 -3 -6 -6z"/>
<path d="M3830 7020 c0 -5 5 -10 10 -10 6 0 10 5 10 10 0 6 -4 10 -10 10 -5 0
-10 -4 -10 -10z"/>
<path d="M1880 6980 c-8 -5 -12 -12 -9 -15 4 -3 12 1 19 10 14 17 11 19 -10 5z"/>
<path d="M1238 6963 c-3 -12 -1 -26 5 -32 15 -15 32 -14 19 2 -5 6 -12 21 -14
32 -4 19 -4 19 -10 -2z"/>
<path d="M908 6953 c7 -3 16 -2 19 1 4 3 -2 6 -13 5 -11 0 -14 -3 -6 -6z"/>
<path d="M890 6910 c0 -5 5 -10 11 -10 5 0 7 5 4 10 -3 6 -8 10 -11 10 -2 0
-4 -4 -4 -10z"/>
<path d="M6650 6891 c0 -5 5 -13 10 -16 6 -3 10 -2 10 4 0 5 -4 13 -10 16 -5
3 -10 2 -10 -4z"/>
<path d="M725 6869 c-4 -6 -5 -13 -2 -16 7 -7 27 6 27 18 0 12 -17 12 -25 -2z"/>
<path d="M920 6802 c0 -7 -10 -12 -22 -12 -17 0 -19 -3 -10 -12 10 -9 16 -8
29 5 9 9 14 20 10 23 -4 4 -7 2 -7 -4z"/>
<path d="M465 6770 c-3 -5 -1 -10 4 -10 6 0 11 5 11 10 0 6 -2 10 -4 10 -3 0
-8 -4 -11 -10z"/>
<path d="M1115 6770 c-3 -5 -1 -10 4 -10 6 0 11 5 11 10 0 6 -2 10 -4 10 -3 0
-8 -4 -11 -10z"/>
<path d="M550 6765 c0 -18 19 -40 26 -32 4 4 0 15 -9 24 -9 10 -17 13 -17 8z"/>
<path d="M680 6716 c0 -8 4 -17 9 -20 10 -7 23 19 14 28 -11 11 -23 6 -23 -8z"/>
<path d="M760 6720 c0 -5 7 -7 15 -4 8 4 15 8 15 10 0 2 -7 4 -15 4 -8 0 -15
-4 -15 -10z"/>
<path d="M6605 6721 c-6 -11 9 -23 19 -14 9 9 7 23 -3 23 -6 0 -12 -4 -16 -9z"/>
<path d="M170 6690 c0 -5 5 -10 10 -10 6 0 10 5 10 10 0 6 -4 10 -10 10 -5 0
-10 -4 -10 -10z"/>
<path d="M950 6680 c0 -5 5 -10 10 -10 6 0 10 5 10 10 0 6 -4 10 -10 10 -5 0
-10 -4 -10 -10z"/>
<path d="M901 6644 c0 -11 3 -14 6 -6 3 7 2 16 -1 19 -3 4 -6 -2 -5 -13z"/>
<path d="M950 6641 c0 -6 5 -13 10 -16 6 -3 10 1 10 9 0 9 -4 16 -10 16 -5 0
-10 -4 -10 -9z"/>
<path d="M425 6630 c-3 -5 -13 -6 -22 -3 -11 4 -14 2 -11 -8 7 -22 36 -22 48
0 11 21 -3 31 -15 11z"/>
<path d="M900 6596 c0 -9 5 -16 10 -16 6 0 10 4 10 9 0 6 -4 13 -10 16 -5 3
-10 -1 -10 -9z"/>
<path d="M997 6561 c-4 -17 -3 -21 5 -13 5 5 8 16 6 23 -3 8 -7 3 -11 -10z"/>
<path d="M2610 6510 c0 -5 5 -10 11 -10 5 0 7 5 4 10 -3 6 -8 10 -11 10 -2 0
-4 -4 -4 -10z"/>
<path d="M570 6500 c0 -5 5 -10 10 -10 6 0 10 5 10 10 0 6 -4 10 -10 10 -5 0
-10 -4 -10 -10z"/>
<path d="M853 6377 c-9 -14 29 -20 42 -6 12 12 11 14 -11 14 -14 0 -28 -3 -31
-8z"/>
<path d="M1713 6333 c-6 -5 -86 -7 -177 -6 -91 1 -167 -1 -170 -6 -3 -4 -10
-50 -16 -102 -6 -52 -15 -121 -20 -154 -5 -33 -16 -125 -25 -205 -9 -80 -23
-191 -31 -248 -8 -56 -14 -122 -14 -146 0 -24 -4 -56 -10 -72 -5 -16 -17 -92
-25 -169 -9 -77 -19 -169 -24 -205 -5 -36 -16 -123 -25 -195 -9 -71 -23 -179
-32 -240 -9 -60 -20 -139 -24 -175 -4 -36 -15 -114 -23 -175 -9 -60 -21 -153
-27 -205 -6 -52 -15 -122 -20 -155 -14 -81 -41 -273 -45 -310 -6 -55 -24 -189
-34 -245 -13 -73 -74 -536 -85 -650 -2 -19 -9 -69 -15 -110 -16 -103 -22 -157
-26 -209 -2 -24 -10 -80 -19 -125 -22 -116 -53 -324 -66 -446 -6 -58 -13 -118
-16 -135 -2 -16 -6 -41 -8 -55 -2 -14 -9 -53 -16 -87 -7 -36 -10 -81 -6 -108
7 -42 20 -59 28 -34 3 8 240 11 866 11 736 0 862 2 862 14 0 18 5 18 33 0 12
-8 45 -15 72 -16 48 -3 1395 -1 1425 2 32 2 2622 -11 2739 -15 86 -2 124 0
128 8 2 7 -5 77 -16 156 -10 79 -26 209 -35 289 -31 272 -50 420 -56 420 -3 0
-6 29 -7 64 -1 35 -9 106 -18 158 -9 51 -18 107 -20 123 -2 17 -13 98 -24 180
-11 83 -23 170 -26 195 -3 25 -9 68 -14 95 -5 28 -15 93 -21 145 -6 52 -18
131 -25 175 -8 44 -16 109 -20 145 -3 36 -12 106 -20 155 -7 50 -21 151 -30
225 -9 74 -23 177 -30 229 -7 51 -11 99 -9 106 3 7 0 23 -6 35 -7 12 -14 55
-16 96 -2 40 -12 128 -23 196 -11 68 -25 165 -31 217 -6 51 -15 114 -21 140
-6 25 -12 109 -15 185 -2 77 -9 145 -15 152 -6 7 -12 34 -15 61 -2 26 -9 98
-15 158 -7 61 -12 122 -13 136 -1 14 -7 33 -14 42 -9 11 -10 17 -2 22 6 4 9
14 6 23 -2 10 -10 65 -17 125 -12 98 -14 107 -32 101 -16 -5 -18 -3 -10 18 8
24 8 68 -4 238 l-8 105 -155 3 c-88 2 -160 8 -167 14 -9 7 -18 7 -28 -2 -13
-10 -71 -12 -273 -7 -590 15 -712 17 -1012 17 -173 0 -324 0 -335 -1 -11 0
-107 3 -212 6 l-193 7 0 -62 c0 -53 -2 -61 -17 -58 -25 5 -50 85 -35 109 11
18 4 18 -156 17 -292 -4 -1886 10 -1912 16 -14 4 -30 3 -37 -1z m3367 -467 c0
-3 -4 -8 -10 -11 -5 -3 -10 -1 -10 4 0 6 5 11 10 11 6 0 10 -2 10 -4z m-370
-276 c19 -5 51 -12 70 -15 59 -9 120 -37 118 -52 -2 -9 16 -21 52 -33 30 -10
56 -23 58 -29 2 -6 19 -18 38 -27 19 -9 34 -22 34 -29 0 -7 7 -15 15 -18 8 -4
21 -21 30 -39 8 -18 28 -51 45 -73 16 -22 29 -47 30 -56 0 -9 6 -22 14 -28 10
-9 12 -20 6 -42 -6 -21 -5 -33 5 -43 16 -15 8 -31 -9 -17 -6 5 -29 14 -52 20
-36 10 -41 15 -42 41 -1 33 12 40 22 13 6 -14 9 -15 15 -4 6 8 2 20 -11 33
-12 12 -17 26 -13 39 5 15 2 19 -14 19 -12 0 -21 -4 -21 -10 0 -5 -12 -10 -26
-10 -14 0 -23 -4 -19 -10 9 -14 42 -12 48 3 2 6 8 9 12 5 12 -11 -15 -38 -39
-38 -11 0 -29 -7 -39 -14 -17 -13 -16 -15 17 -31 20 -10 33 -21 31 -26 -3 -5
6 -11 20 -15 14 -3 25 -12 25 -20 0 -8 10 -14 25 -14 14 0 34 -9 45 -20 24
-24 28 -49 5 -30 -12 10 -18 10 -31 -1 -15 -12 -16 -11 -10 8 6 18 2 22 -26
29 -18 4 -37 7 -41 6 -4 -1 -10 5 -13 13 -5 12 -9 13 -20 4 -19 -16 -30 -4
-15 15 10 12 9 14 -8 9 -12 -3 -28 -2 -37 1 -14 5 -14 9 -3 23 12 15 12 16 -3
10 -10 -3 -18 -2 -18 3 0 6 -8 10 -17 11 -17 0 -17 1 -1 7 23 9 9 27 -21 27
-13 0 -26 6 -29 14 -3 8 0 11 7 7 12 -8 121 -16 121 -9 0 2 -5 14 -11 25 -11
21 -12 21 -25 3 -11 -15 -16 -16 -29 -5 -10 8 -15 9 -15 1 0 -6 -7 -11 -15
-11 -19 0 -19 19 0 26 8 4 13 10 10 15 -3 4 -12 6 -19 3 -8 -3 -17 0 -21 6 -5
8 -11 8 -21 -1 -11 -9 -14 -8 -14 2 0 8 11 19 25 26 14 6 25 8 25 4 0 -4 21
-7 47 -7 42 1 48 -2 54 -24 5 -21 7 -22 14 -8 5 13 14 16 31 12 15 -4 24 -2
24 6 0 6 -6 10 -12 8 -7 -3 -21 4 -32 14 -11 10 -28 18 -37 18 -29 0 -49 11
-49 29 -1 13 -3 13 -16 -4 -14 -19 -16 -19 -25 -2 -6 9 -17 17 -24 17 -18 0
-20 -20 -2 -21 6 0 2 -5 -10 -11 -13 -6 -23 -17 -23 -25 0 -8 -5 -11 -10 -8
-8 5 -7 11 1 21 6 7 8 21 5 31 -4 9 -1 20 6 24 10 7 10 11 0 21 -10 10 -15 10
-20 1 -4 -7 -23 -11 -42 -10 -31 2 -35 -1 -35 -22 0 -13 -6 -26 -12 -28 -8 -3
-13 4 -13 16 0 22 -4 26 -42 35 -18 4 -32 1 -42 -10 -9 -8 -20 -12 -26 -9 -6
4 7 24 29 48 46 48 44 73 -3 28 -34 -33 -54 -39 -61 -18 -6 14 -85 19 -85 6 0
-5 5 -9 10 -9 6 0 10 -3 10 -7 0 -10 -52 -34 -58 -28 -3 2 3 7 12 11 23 9 20
23 -4 17 -11 -3 -20 0 -20 6 0 6 -5 11 -11 11 -6 0 -9 -6 -6 -14 7 -19 -37
-30 -63 -16 -11 6 -20 17 -20 25 0 8 -7 15 -15 15 -20 0 -19 -16 1 -24 13 -5
14 -9 4 -21 -17 -20 -40 -19 -40 3 0 14 -2 15 -10 2 -5 -9 -5 -19 2 -27 13
-16 -3 -38 -32 -46 -13 -3 -17 -1 -13 9 3 8 11 14 19 14 21 0 17 18 -6 30 -23
13 -27 35 -4 26 8 -3 21 0 28 6 11 10 8 15 -12 25 -24 13 -62 18 -62 8 0 -3 5
-14 12 -25 16 -25 0 -40 -17 -16 -15 20 -37 13 -28 -9 3 -8 0 -15 -6 -15 -6 0
-11 8 -11 19 0 10 -9 21 -20 24 -22 6 -27 -12 -8 -31 25 -25 -1 -20 -40 8 -27
19 -44 26 -48 19 -4 -6 0 -15 7 -20 11 -6 9 -13 -10 -33 -13 -13 -20 -30 -16
-36 5 -7 -1 -9 -19 -4 -23 5 -25 4 -20 -12 6 -16 5 -17 -7 -6 -18 17 -29 15
-30 -5 0 -14 -3 -13 -11 5 -6 12 -16 22 -22 22 -6 0 -22 3 -35 7 -20 5 -22 3
-17 -15 9 -26 -8 -36 -35 -22 -29 16 -51 -4 -26 -22 16 -12 16 -14 -4 -26 -19
-12 -20 -11 -15 6 4 11 0 24 -9 32 -9 8 -13 21 -10 34 5 20 5 20 -11 -1 -9
-13 -27 -23 -40 -23 -13 0 -28 -9 -34 -20 -6 -11 -8 -20 -5 -20 4 0 3 -5 0
-11 -5 -6 -12 -4 -22 8 -10 13 -16 15 -19 6 -3 -7 -11 -13 -18 -13 -7 0 -21
-9 -31 -20 -14 -16 -16 -23 -7 -32 14 -14 16 -28 3 -28 -5 0 -12 11 -15 24 -6
24 -47 43 -66 31 -6 -4 -10 0 -10 9 0 8 6 16 13 19 6 2 9 7 5 11 -3 4 -20 0
-38 -9 -30 -15 -33 -15 -47 2 -14 17 -14 17 -10 -5 4 -15 -1 -25 -13 -32 -27
-14 -32 -12 -25 10 5 15 3 18 -9 14 -9 -3 -19 3 -26 15 -10 20 -12 20 -41 6
-38 -20 -205 -22 -224 -3 -4 4 -21 0 -37 -8 -17 -9 -32 -13 -36 -10 -3 3 -11
1 -19 -5 -7 -6 -13 -8 -13 -4 0 4 -6 3 -12 -3 -7 -5 -28 -13 -45 -17 -29 -6
-33 -4 -33 14 0 22 -16 27 -40 12 -8 -6 -18 -7 -23 -4 -5 3 -31 6 -59 7 -37 1
-52 -3 -59 -15 -4 -9 -22 -19 -39 -22 -21 -5 -30 -12 -30 -27 0 -11 -7 -20
-15 -20 -8 0 -19 -9 -25 -19 -6 -12 -17 -17 -29 -14 -23 6 -38 -15 -17 -23 21
-8 21 -40 0 -48 -12 -5 -14 -14 -9 -46 4 -23 3 -46 -3 -53 -5 -7 -10 -26 -10
-42 0 -17 -2 -36 -4 -41 -2 -6 8 -21 22 -32 25 -21 25 -21 3 -22 -20 0 -22 -4
-18 -50 2 -27 0 -50 -5 -50 -4 0 -7 -26 -5 -57 2 -59 -13 -93 -41 -93 -12 0
-31 -80 -25 -109 1 -8 -1 -17 -6 -20 -6 -3 -6 -45 -2 -96 4 -49 5 -100 2 -112
-3 -15 1 -23 16 -28 23 -7 26 -16 11 -31 -7 -7 -8 -19 -1 -37 9 -22 7 -29 -11
-41 -21 -15 -18 -31 5 -31 17 -1 12 -63 -7 -84 -15 -16 -13 -17 24 -17 25 1
40 6 40 14 0 6 4 12 9 12 5 0 11 8 14 19 3 13 18 20 53 25 71 11 394 18 394 9
0 -5 14 -22 30 -40 17 -18 30 -34 30 -37 0 -2 -14 -4 -31 -4 -17 1 -34 -3 -37
-9 -4 -5 -17 -12 -30 -16 -22 -5 -23 -3 -16 26 3 18 11 38 16 45 7 8 7 12 -1
12 -6 0 -11 -5 -11 -11 0 -5 -4 -8 -9 -5 -14 9 -41 -4 -41 -20 0 -22 -31 -17
-37 6 -6 22 -19 26 -25 8 -3 -7 -11 -9 -24 -3 -10 4 -47 9 -81 10 -68 3 -79
-7 -43 -38 24 -20 26 -37 5 -37 -8 0 -15 7 -15 15 0 8 -6 14 -12 13 -7 -2 -12
5 -12 15 1 9 -4 17 -12 17 -8 0 -14 -6 -14 -14 0 -23 11 -46 20 -41 4 3 10 -2
14 -10 8 -23 -10 -18 -38 9 -15 15 -20 27 -13 29 24 9 0 16 -28 9 -19 -5 -25
-11 -17 -16 17 -10 15 -43 -3 -50 -8 -3 -15 -11 -15 -18 0 -18 -37 -41 -45
-28 -7 11 18 40 34 40 6 0 11 11 11 25 0 33 -4 32 -30 -11 -13 -20 -28 -33
-35 -30 -8 2 -16 -1 -19 -9 -3 -9 0 -12 10 -8 29 11 13 -18 -21 -38 -22 -13
-37 -31 -41 -48 -3 -14 -7 -35 -9 -45 -2 -11 1 -26 7 -33 8 -10 8 -17 0 -25
-9 -9 -6 -20 9 -44 13 -22 16 -35 9 -39 -7 -5 -5 -11 6 -19 16 -12 15 -14 -7
-29 -17 -13 -19 -17 -7 -17 12 0 15 -6 11 -21 -4 -14 0 -27 11 -35 17 -12 16
-14 -3 -33 -25 -25 -27 -33 -7 -25 12 4 14 -6 12 -54 -2 -32 -6 -64 -9 -70 -4
-5 -1 -12 5 -15 10 -3 10 -8 2 -16 -19 -21 6 -61 34 -54 16 4 22 1 22 -11 0
-9 3 -15 8 -14 4 2 8 -1 10 -7 1 -5 -9 -11 -23 -13 -17 -2 -25 1 -25 12 0 9
-4 16 -9 16 -17 0 -23 -20 -11 -35 9 -11 7 -18 -9 -34 l-21 -21 23 -12 c12 -7
26 -11 31 -10 4 2 18 -9 30 -23 12 -14 31 -25 43 -25 12 0 28 -9 36 -20 8 -11
17 -17 20 -14 4 4 13 2 21 -5 7 -6 34 -13 59 -15 24 -2 55 -11 68 -20 13 -9
33 -16 46 -16 12 0 25 -5 28 -10 4 -6 15 -8 24 -5 10 3 31 -1 47 -10 17 -8 39
-16 50 -17 37 -4 113 14 118 29 5 11 10 12 19 4 14 -11 67 6 67 22 0 4 4 7 10
7 5 0 7 -7 4 -15 -8 -21 13 -19 25 2 8 14 13 15 33 6 12 -6 36 -14 53 -18 16
-4 33 -11 36 -17 4 -7 13 -6 27 1 13 7 23 7 27 2 7 -13 105 -12 129 1 15 8 18
7 13 -5 -5 -12 1 -13 35 -5 23 5 46 12 52 16 20 12 80 11 88 -1 5 -8 8 -6 8 6
0 21 5 21 39 1 26 -15 30 -15 71 5 41 19 44 20 56 3 9 -11 13 -13 14 -4 0 7 5
10 10 7 6 -4 17 -2 25 5 10 8 24 8 49 2 19 -6 37 -7 40 -4 3 3 6 -2 6 -11 0
-21 10 -21 36 -2 10 8 30 14 44 15 20 0 22 -2 10 -10 -8 -5 -13 -10 -10 -11 3
0 13 -2 23 -4 9 -2 30 3 45 10 42 21 82 29 82 16 0 -6 -6 -11 -12 -11 -7 0 -4
-6 6 -12 16 -9 22 -6 38 13 17 23 19 23 29 6 8 -14 14 -15 24 -7 20 16 85 19
85 3 0 -20 21 -15 27 7 4 14 9 17 22 11 13 -7 66 -8 66 -1 0 2 10 4 23 5 12 1
22 -2 22 -6 0 -5 7 -9 15 -9 8 0 15 5 15 11 0 6 8 8 19 4 11 -3 22 -1 25 4 4
6 43 8 91 7 47 -2 85 0 85 5 0 5 19 7 42 5 49 -4 96 26 90 57 -5 26 48 24 55
-3 3 -11 12 -20 19 -20 20 0 17 14 -10 43 -23 25 -23 26 -6 54 9 15 25 35 35
43 17 14 18 13 12 -3 -5 -13 -3 -17 5 -15 18 6 23 39 7 49 -7 4 -22 1 -33 -7
-29 -20 -39 -17 -26 6 6 11 18 20 28 20 16 1 16 2 -1 14 -11 8 -14 15 -7 18 8
2 8 11 1 30 -8 20 -7 29 5 39 11 9 11 15 3 25 -9 11 -7 15 5 20 11 4 15 13 11
25 -4 12 -1 21 9 25 11 4 14 13 10 31 -5 17 -3 24 7 23 8 -2 21 -2 29 -1 12 1
12 3 2 9 -9 7 -7 14 9 33 12 13 25 23 30 21 5 -1 9 2 9 8 0 5 -6 10 -14 10
-17 0 -18 38 -1 60 28 36 51 145 34 156 -6 3 -8 17 -5 29 3 13 2 27 -4 30 -5
3 -10 15 -10 25 0 10 -8 25 -18 32 -10 7 -22 25 -25 39 -5 18 -16 29 -34 34
-28 7 -52 31 -53 53 0 9 6 9 23 -3 25 -16 39 -12 31 9 -7 18 22 39 46 33 11
-3 23 -1 26 4 3 5 -6 9 -20 9 -28 0 -35 14 -11 24 8 3 14 11 13 18 -2 8 5 12
20 10 20 -3 22 0 16 23 -6 24 -5 26 21 19 25 -6 26 -5 13 15 -7 11 -17 21 -23
21 -6 0 -16 9 -23 20 -15 24 -1 33 45 28 26 -3 28 -6 29 -53 1 -27 -2 -70 -7
-95 -4 -24 -5 -49 -1 -54 3 -5 6 -21 8 -35 3 -30 12 -118 19 -177 2 -23 1 -44
-2 -48 -9 -9 -12 -49 -5 -61 8 -14 2 -98 -9 -111 -5 -6 -4 -23 3 -42 10 -26 9
-34 -5 -50 -9 -10 -14 -22 -11 -25 4 -4 8 -52 10 -107 1 -54 5 -108 9 -119 3
-11 1 -22 -4 -26 -6 -3 -7 -14 -1 -29 5 -15 5 -27 -2 -34 -6 -6 -7 -15 -3 -21
6 -11 15 -143 16 -245 0 -63 -18 -85 -57 -67 -15 6 -29 10 -31 7 -9 -9 8 -26
25 -26 15 -1 15 -2 -2 -15 -18 -13 -22 -13 -43 7 -13 12 -23 18 -23 14 0 -5
-6 -3 -14 3 -15 12 -38 4 -77 -27 -24 -19 -119 5 -119 30 0 10 -4 18 -10 18
-5 0 -10 -6 -10 -13 0 -20 -47 -38 -76 -31 -16 4 -31 1 -44 -11 -23 -21 -60
-12 -60 15 0 17 -7 18 -62 16 -52 -3 -62 -7 -60 -20 5 -26 -24 -19 -36 9 -10
22 -14 24 -32 13 -11 -7 -20 -16 -20 -20 0 -12 -88 -9 -96 3 -4 8 -9 8 -17 0
-7 -7 -14 -4 -21 12 -14 28 -49 36 -44 11 2 -11 -4 -20 -16 -22 -11 -2 -16 0
-12 7 4 6 2 11 -3 11 -6 0 -11 -5 -11 -12 0 -6 -6 -4 -13 6 -11 15 -17 17 -35
7 -18 -10 -22 -9 -22 4 0 8 -7 15 -16 15 -9 0 -14 -7 -12 -17 5 -24 -46 -47
-73 -33 -10 6 -19 16 -19 22 0 7 5 6 15 -2 9 -7 18 -10 22 -7 3 4 -5 11 -18
17 -29 13 -76 -1 -85 -25 -9 -22 -31 -18 -37 6 -4 15 -11 20 -22 15 -9 -3 -13
-2 -10 4 3 5 -3 14 -14 19 -14 8 -22 7 -31 -4 -11 -13 -7 -17 19 -26 23 -8 29
-15 22 -22 -7 -7 -17 -5 -32 9 -20 18 -22 18 -34 1 -14 -19 -40 -23 -51 -6 -3
6 -17 8 -30 5 -18 -5 -24 -2 -24 10 0 11 -5 14 -16 10 -10 -4 -25 1 -35 10
-17 15 -20 15 -48 -5 -18 -13 -32 -17 -36 -11 -3 5 -13 10 -21 10 -8 0 -13 -4
-10 -9 3 -5 -3 -11 -14 -14 -16 -4 -20 0 -20 20 0 31 -20 26 -38 -10 -13 -26
-42 -38 -42 -17 0 6 4 10 10 10 5 0 7 7 4 15 -8 19 -54 10 -72 -15 -13 -18
-15 -18 -44 0 -21 13 -38 16 -57 11 -37 -11 -55 -3 -40 15 21 26 -5 40 -29 16
-25 -25 -58 -36 -67 -22 -8 13 -55 13 -55 -1 0 -6 -8 -8 -19 -4 -11 3 -22 1
-26 -5 -3 -5 -19 -10 -34 -10 -15 0 -36 -9 -46 -20 -20 -22 -47 -19 -78 8 -15
13 -22 14 -37 4 -28 -17 -46 -16 -31 2 22 26 -15 29 -82 7 -21 -7 -45 -10 -54
-7 -8 4 -22 1 -29 -5 -8 -6 -21 -8 -30 -5 -9 4 -24 1 -33 -6 -11 -9 -11 -6 2
9 12 13 25 19 35 16 15 -6 14 -3 -2 15 -17 20 -20 20 -42 5 -13 -8 -24 -19
-24 -24 0 -5 -5 -9 -11 -9 -5 0 -8 4 -4 9 6 11 -35 42 -47 35 -4 -3 -8 -13 -8
-24 0 -27 -28 -32 -82 -14 -47 15 -50 15 -64 -2 -13 -17 -13 -16 -2 9 8 20 8
31 1 38 -16 16 -35 1 -28 -21 3 -11 0 -20 -10 -24 -10 -4 -15 1 -15 14 0 11
-4 20 -10 20 -5 0 -10 -4 -10 -10 0 -5 -7 -10 -15 -10 -10 0 -15 10 -15 29 0
32 -15 47 -42 43 -13 -2 -18 3 -18 18 0 12 -5 30 -10 40 -6 10 -6 21 -1 24 4
3 7 39 6 80 -3 73 -2 76 31 110 27 28 33 41 28 61 -4 15 -1 32 6 40 17 21 5
73 -22 95 -21 16 -21 21 -10 68 8 37 8 59 1 82 -8 23 -8 34 1 45 8 10 11 31 7
60 -4 25 -2 47 3 50 6 3 19 27 31 52 19 43 19 45 3 58 -14 10 -18 29 -20 81
-1 38 2 74 8 81 10 12 18 58 22 128 1 22 6 51 10 63 6 18 3 27 -13 38 -26 19
-26 29 -2 62 30 44 35 71 16 92 -16 18 -16 20 -1 36 11 10 14 23 10 33 -14 30
-7 131 10 150 16 17 15 19 -15 31 -28 12 -30 16 -25 44 4 17 9 48 13 69 3 22
14 44 24 50 20 13 26 37 9 37 -16 0 -12 14 10 38 18 19 19 28 11 57 -5 19 -7
35 -4 35 3 0 0 7 -7 15 -14 17 -5 72 18 98 14 15 13 19 -1 35 -10 10 -14 22
-10 25 3 4 1 17 -5 30 -6 12 -13 43 -15 70 -4 39 -1 50 15 61 11 8 17 19 14
25 -10 15 19 65 50 90 15 12 40 21 56 21 16 0 37 4 46 9 11 6 36 5 65 -2 42
-9 52 -8 79 8 31 18 32 18 46 -3 16 -24 69 -31 88 -12 6 6 24 12 40 15 16 2
38 7 50 10 14 5 31 -2 53 -21 24 -20 35 -24 40 -15 20 31 166 34 184 4 7 -11
12 -12 23 -2 10 8 42 10 109 5 60 -4 96 -3 100 4 9 14 111 13 135 -2 14 -9 27
-10 52 -1 18 6 50 14 71 18 21 3 41 13 44 21 3 7 13 14 23 14 11 0 22 5 25 10
9 15 75 56 105 65 14 4 34 18 45 31 15 17 34 25 75 29 75 8 181 33 197 47 10
8 20 8 37 0 15 -7 37 -7 62 -2 22 5 76 10 120 11 45 1 86 4 92 8 14 9 169 3
212 -9z m-112 -204 c3 -12 -1 -17 -10 -14 -7 3 -15 13 -16 22 -3 12 1 17 10
14 7 -3 15 -13 16 -22z m-202 -32 c-3 -9 -6 -20 -6 -25 0 -5 -7 -9 -16 -9 -11
0 -14 5 -10 16 3 9 6 20 6 25 0 5 7 9 16 9 11 0 14 -5 10 -16z m-292 -61 c-1
-33 -29 -39 -29 -6 0 11 -3 25 -7 29 -5 4 -8 13 -8 21 0 11 4 11 23 -2 15 -10
22 -23 21 -42z m51 47 c3 -5 -1 -10 -10 -10 -9 0 -13 5 -10 10 3 6 8 10 10 10
2 0 7 -4 10 -10z m75 -11 c0 -11 -4 -17 -10 -14 -5 3 -10 13 -10 21 0 8 5 14
10 14 6 0 10 -9 10 -21z m380 15 c0 -3 -7 -12 -16 -21 -8 -9 -13 -22 -10 -29
6 -15 -6 -19 -18 -7 -4 4 -23 8 -42 9 -39 1 -60 16 -49 35 6 9 11 8 20 -5 12
-16 13 -16 19 0 6 16 8 15 20 -2 12 -15 16 -16 30 -5 9 7 13 17 10 22 -3 5 4
9 15 9 12 0 21 -3 21 -6z m120 -10 c0 -2 -7 -4 -15 -4 -8 0 -15 4 -15 10 0 5
7 7 15 4 8 -4 15 -8 15 -10z m123 10 c7 -7 -20 -54 -42 -72 -13 -11 -14 -14
-2 -21 7 -5 11 -13 7 -19 -3 -5 4 -12 16 -15 12 -4 25 -2 28 3 3 4 10 -2 17
-16 10 -21 9 -24 -8 -24 -12 0 -19 -7 -19 -19 0 -22 -29 -36 -44 -21 -7 7 -5
10 7 10 9 0 17 5 17 10 0 6 -7 10 -15 10 -8 0 -12 6 -9 14 6 15 -11 16 -73 2
-23 -5 -37 -3 -52 11 -12 9 -21 21 -21 25 0 14 43 9 61 -7 15 -14 18 -14 33 0
9 10 23 14 31 11 26 -10 16 24 -10 36 -30 14 -33 28 -4 28 16 0 19 4 14 20 -5
15 -2 20 14 20 11 0 23 5 26 10 7 11 19 13 28 4z m-163 -14 c0 -5 -4 -10 -10
-10 -5 0 -10 5 -10 10 0 6 5 10 10 10 6 0 10 -4 10 -10z m-244 -37 c-7 -7 -26
7 -26 19 0 6 6 6 15 -2 9 -7 13 -15 11 -17z m-297 -4 c-15 -9 -32 -2 -24 11 3
5 13 6 21 3 12 -4 13 -8 3 -14z m163 -1 c-7 -7 -12 -8 -12 -2 0 14 12 26 19
19 2 -3 -1 -11 -7 -17z m338 -3 c-7 -8 -19 -15 -26 -15 -8 0 -14 -9 -14 -20 0
-11 -4 -20 -10 -20 -19 0 -10 22 21 51 32 30 53 33 29 4z m-284 -12 c-10 -10
-19 5 -10 18 6 11 8 11 12 0 2 -7 1 -15 -2 -18z m33 -4 c-13 -26 -20 -21 -12
9 3 12 9 19 14 16 5 -3 4 -14 -2 -25z m331 -5 c0 -3 -9 -2 -20 1 -11 4 -20 2
-20 -4 0 -6 -7 -11 -15 -11 -20 0 -19 10 2 25 16 12 53 4 53 -11z m-850 -15
c0 -5 -7 -9 -15 -9 -15 0 -20 12 -9 23 8 8 24 -1 24 -14z m130 -5 c0 -8 -4
-14 -10 -14 -5 0 -10 9 -10 21 0 11 5 17 10 14 6 -3 10 -13 10 -21z m182 4
c-7 -7 -12 -8 -12 -2 0 14 12 26 19 19 2 -3 -1 -11 -7 -17z m102 13 c3 -5 -5
-11 -19 -13 -28 -6 -35 8 -7 15 9 3 18 5 19 6 1 0 4 -3 7 -8z m186 -26 c0 -5
-5 -3 -10 5 -5 8 -10 20 -10 25 0 6 5 3 10 -5 5 -8 10 -19 10 -25z m-520 15
c0 -5 -9 -10 -20 -10 -11 0 -20 5 -20 10 0 6 9 10 20 10 11 0 20 -4 20 -10z
m90 0 c0 -5 -4 -10 -10 -10 -5 0 -10 5 -10 10 0 6 5 10 10 10 6 0 10 -4 10
-10z m160 -30 c0 -5 -5 -10 -11 -10 -5 0 -7 5 -4 10 3 6 8 10 11 10 2 0 4 -4
4 -10z m40 -22 c0 -5 -4 -8 -10 -8 -5 0 -10 10 -10 23 0 18 2 19 10 7 5 -8 10
-18 10 -22z m-1370 12 c0 -5 -5 -10 -11 -10 -5 0 -7 5 -4 10 3 6 8 10 11 10 2
0 4 -4 4 -10z m813 -4 c12 -9 14 -16 8 -21 -6 -3 -14 1 -17 9 -4 11 -11 13
-30 6 -24 -10 -35 4 -11 13 20 9 31 7 50 -7z m421 0 c-10 -8 -21 -12 -24 -10
-5 6 21 24 34 24 6 0 1 -6 -10 -14z m176 10 c0 -3 -4 -8 -10 -11 -5 -3 -10 -1
-10 4 0 6 5 11 10 11 6 0 10 -2 10 -4z m-349 -33 c-8 -15 -10 -15 -11 -2 0 17
10 32 18 25 2 -3 -1 -13 -7 -23z m-366 7 c3 -5 0 -19 -7 -30 -11 -17 -11 -22
2 -30 11 -7 12 -12 3 -21 -9 -9 -16 -8 -29 6 -23 23 -33 1 -10 -24 12 -13 13
-20 4 -29 -18 -18 -31 -14 -25 8 3 14 -3 26 -21 40 -24 20 -25 21 -6 35 10 8
22 15 27 15 4 0 7 6 7 14 0 13 13 20 42 25 4 0 9 -3 13 -9z m1075 1 c0 -12
-20 -25 -27 -18 -7 7 6 27 18 27 5 0 9 -4 9 -9z m-390 -23 c0 -5 -4 -7 -9 -4
-5 3 -12 -2 -16 -12 -7 -16 -8 -15 -15 3 -13 31 -12 33 15 27 14 -2 25 -9 25
-14z m340 2 c0 -5 -7 -10 -16 -10 -8 0 -12 5 -9 10 3 6 10 10 16 10 5 0 9 -4
9 -10z m-222 -19 c3 -8 -4 -12 -19 -9 -29 4 -36 25 -7 23 12 -1 24 -7 26 -14z
m47 9 c-3 -5 -12 -10 -18 -10 -7 0 -6 4 3 10 19 12 23 12 15 0z m505 -5 c15
-19 3 -38 -21 -32 -26 7 -24 -8 4 -21 22 -11 22 -11 1 -11 -12 -1 -27 6 -34
14 -11 13 -14 13 -26 -2 -9 -12 -13 -14 -14 -5 0 23 20 53 43 62 30 12 33 12
47 -5z m-2173 -10 c3 -9 3 -19 -1 -22 -7 -7 -36 16 -36 28 0 15 30 10 37 -6z
m38 6 c3 -5 1 -12 -5 -16 -5 -3 -10 1 -10 9 0 18 6 21 15 7z m1735 -1 c0 -5
-4 -10 -10 -10 -5 0 -10 5 -10 10 0 6 5 10 10 10 6 0 10 -4 10 -10z m35 0 c3
-5 1 -10 -4 -10 -6 0 -11 5 -11 10 0 6 2 10 4 10 3 0 8 -4 11 -10z m-590 -10
c-3 -5 -13 -10 -21 -10 -8 0 -14 5 -14 10 0 6 9 10 21 10 11 0 17 -4 14 -10z
m515 -10 c0 -5 -5 -10 -11 -10 -5 0 -7 5 -4 10 3 6 8 10 11 10 2 0 4 -4 4 -10z
m482 -15 c0 -5 -5 -11 -11 -13 -6 -2 -11 4 -11 13 0 9 5 15 11 13 6 -2 11 -8
11 -13z m-1012 -4 c0 -5 -7 -11 -14 -14 -10 -4 -13 -1 -9 9 6 15 23 19 23 5z
m50 -26 c-10 -18 -16 -22 -21 -13 -5 7 -1 20 8 30 22 24 30 14 13 -17z m217
-7 c17 -1 38 3 46 10 11 10 17 10 25 0 8 -10 4 -13 -15 -15 -15 0 -30 -8 -35
-17 -5 -9 -14 -13 -21 -9 -19 12 -61 13 -68 2 -4 -7 -19 1 -38 20 -27 27 -29
31 -12 31 11 0 23 -4 26 -10 10 -16 25 -12 25 7 0 15 1 15 18 0 10 -9 32 -17
49 -19z m143 0 c0 -17 -1 -17 -20 -1 -11 10 -20 18 -20 20 0 1 9 1 20 0 12 -1
20 -8 20 -19z m57 -4 c-3 -3 -12 -4 -19 -1 -8 3 -5 6 6 6 11 1 17 -2 13 -5z
m593 -4 c0 -5 -5 -10 -11 -10 -5 0 -7 5 -4 10 3 6 8 10 11 10 2 0 4 -4 4 -10z
m-280 -4 c0 -3 -4 -8 -10 -11 -5 -3 -10 -1 -10 4 0 6 5 11 10 11 6 0 10 -2 10
-4z m150 -20 c0 -2 -9 -2 -20 1 -11 3 -20 9 -20 15 0 5 9 4 20 -2 11 -6 20
-12 20 -14z m-1317 -19 c-5 -8 -8 -8 -10 0 -3 7 -12 9 -21 6 -14 -4 -14 -3 -3
5 17 12 43 4 34 -11z m717 13 c0 -5 -4 -10 -10 -10 -5 0 -10 5 -10 10 0 6 5
10 10 10 6 0 10 -4 10 -10z m420 0 c0 -5 -7 -10 -16 -10 -8 0 -12 5 -9 10 3 6
10 10 16 10 5 0 9 -4 9 -10z m80 6 c0 -2 -7 -6 -15 -10 -8 -3 -15 -1 -15 4 0
6 7 10 15 10 8 0 15 -2 15 -4z m-2105 -16 c3 -5 2 -10 -4 -10 -5 0 -13 5 -16
10 -3 6 -2 10 4 10 5 0 13 -4 16 -10z m2308 -49 c-8 -10 -35 28 -28 39 5 8 11
4 19 -12 7 -12 11 -25 9 -27z m42 29 c3 -5 2 -10 -4 -10 -5 0 -13 5 -16 10 -3
6 -2 10 4 10 5 0 13 -4 16 -10z m-1465 -10 c0 -5 -4 -10 -10 -10 -5 0 -10 5
-10 10 0 6 5 10 10 10 6 0 10 -4 10 -10z m-905 -10 c26 -10 26 -10 8 -35 -20
-27 -63 -34 -63 -10 0 8 -4 15 -10 15 -14 0 -12 27 3 33 19 8 34 8 62 -3z
m2563 -9 c3 -8 -1 -12 -9 -9 -7 2 -15 10 -17 17 -3 8 1 12 9 9 7 -2 15 -10 17
-17z m-49 6 c-2 -1 -13 -9 -24 -17 -19 -14 -19 -14 -6 3 7 9 18 17 24 17 6 0
8 -1 6 -3z m-284 -46 c-6 -5 -25 10 -25 20 0 5 6 4 14 -3 8 -7 12 -15 11 -17z
m55 19 c0 -5 -7 -10 -15 -10 -8 0 -15 5 -15 10 0 6 7 10 15 10 8 0 15 -4 15
-10z m280 -25 c-7 -8 -19 -15 -26 -15 -8 0 -14 7 -14 15 0 10 10 15 26 15 22
0 25 -2 14 -15z m40 -41 c0 -6 -9 -19 -19 -28 -11 -10 -17 -24 -14 -32 3 -9
-2 -14 -16 -14 -14 0 -21 6 -21 20 0 11 -4 20 -10 20 -5 0 -10 9 -10 20 0 11
5 20 10 20 6 0 10 -9 10 -19 0 -11 5 -23 11 -27 9 -5 10 1 5 20 -9 38 9 60 35
43 10 -6 19 -17 19 -23z m-190 16 c0 -5 -5 -10 -11 -10 -5 0 -7 5 -4 10 3 6 8
10 11 10 2 0 4 -4 4 -10z m45 0 c3 -5 1 -10 -4 -10 -6 0 -11 5 -11 10 0 6 2
10 4 10 3 0 8 -4 11 -10z m-29 -47 c-10 -10 -19 5 -10 18 6 11 8 11 12 0 2 -7
1 -15 -2 -18z m-133 -1 c-12 -12 -21 -14 -25 -8 -13 19 -9 26 17 26 24 0 24
-1 8 -18z m-155 -17 c-3 -3 -9 2 -12 12 -6 14 -5 15 5 6 7 -7 10 -15 7 -18z
m42 15 c0 -5 -4 -10 -10 -10 -5 0 -10 5 -10 10 0 6 5 10 10 10 6 0 10 -4 10
-10z m290 -6 c0 -8 -5 -12 -10 -9 -6 4 -8 11 -5 16 9 14 15 11 15 -7z m-2280
-19 c0 -8 -7 -15 -15 -15 -9 0 -12 6 -9 15 4 8 10 15 15 15 5 0 9 -7 9 -15z
m79 2 c8 -11 5 -13 -19 -9 -17 2 -30 8 -30 13 0 14 36 11 49 -4z m1845 -27
c-6 -5 -24 21 -24 34 0 6 6 1 14 -10 8 -10 12 -21 10 -24z m231 20 c3 -5 2
-10 -4 -10 -5 0 -13 5 -16 10 -3 6 -2 10 4 10 5 0 13 -4 16 -10z m-2404 -23
c-13 -13 -26 -3 -16 12 3 6 11 8 17 5 6 -4 6 -10 -1 -17z m209 8 c0 -8 -6 -15
-12 -15 -8 0 -6 -5 4 -10 15 -9 14 -13 -10 -39 -26 -27 -42 -31 -42 -10 0 5 7
9 15 9 8 0 15 5 15 10 0 6 -9 10 -19 10 -11 0 -21 6 -24 13 -2 7 -8 8 -13 3
-5 -5 -4 -11 4 -13 6 -3 12 -9 12 -15 0 -5 -6 -8 -12 -5 -7 2 -19 -10 -27 -27
-12 -28 -14 -29 -20 -11 -8 19 -8 19 -20 -3 -8 -15 -21 -22 -41 -22 -20 0 -31
-6 -35 -20 -8 -25 -21 -26 -30 -3 -4 12 2 25 18 39 13 11 26 27 29 35 2 7 20
14 38 15 23 1 39 9 48 23 8 12 23 21 33 21 10 0 21 5 24 10 4 6 15 8 26 5 11
-4 19 -2 19 4 0 6 5 11 10 11 6 0 10 -7 10 -15z m2160 11 c0 -11 -19 -15 -25
-6 -3 5 1 10 9 10 9 0 16 -2 16 -4z m-310 -16 c12 -8 11 -10 -7 -10 -13 0 -23
5 -23 10 0 13 11 13 30 0z m246 -17 c-2 -2 -11 0 -20 3 -14 5 -15 9 -5 15 12
7 34 -10 25 -18z m-1911 7 c3 -5 -1 -10 -9 -10 -9 0 -19 0 -23 -1 -4 0 -9 4
-11 10 -5 14 35 14 43 1z m1650 -30 c34 0 39 -27 7 -33 -15 -3 -34 -8 -43 -12
-21 -8 -30 16 -22 57 6 32 6 32 21 10 8 -12 25 -22 37 -22z m99 21 c-16 -16
-47 -17 -52 -2 -3 10 1 12 17 8 11 -3 24 -1 27 5 3 5 9 7 12 3 3 -3 1 -9 -4
-14z m441 9 c3 -5 2 -10 -4 -10 -5 0 -13 5 -16 10 -3 6 -2 10 4 10 5 0 13 -4
16 -10z m35 -10 c0 -5 -5 -10 -10 -10 -7 0 -7 -6 0 -20 7 -14 8 -20 0 -20 -6
0 -15 -11 -21 -24 -9 -18 -8 -29 4 -47 9 -13 19 -41 22 -61 6 -34 5 -38 -13
-38 -26 0 -37 17 -23 34 13 15 4 46 -13 46 -6 0 -21 3 -33 6 -14 4 -23 2 -23
-5 0 -6 11 -11 25 -11 14 0 25 -4 25 -10 0 -18 -65 -2 -65 16 -1 24 -28 54
-48 54 -41 0 -51 14 -32 44 24 36 43 33 50 -8 6 -28 13 -35 47 -47 33 -11 41
-11 48 2 6 8 5 18 0 23 -15 15 -12 26 5 20 20 -8 41 6 25 16 -9 6 -9 12 1 29
15 22 29 28 29 11z m-2325 -10 c-3 -5 -10 -10 -16 -10 -5 0 -9 5 -9 10 0 6 7
10 16 10 8 0 12 -4 9 -10z m2035 -30 c-30 -30 -37 -18 -8 15 12 14 24 22 26
16 2 -5 -6 -19 -18 -31z m-1890 9 c0 -5 -7 -9 -15 -9 -8 0 -15 7 -15 15 0 9 6
12 15 9 8 -4 15 -10 15 -15z m1786 -29 c8 0 14 -4 14 -8 0 -5 -14 -9 -30 -9
-21 0 -27 4 -20 11 5 5 11 19 11 31 2 18 2 18 6 -2 2 -13 11 -23 19 -23z
m-216 -31 l0 23 19 -23 c16 -20 17 -25 5 -32 -8 -4 -14 -19 -14 -32 0 -14 -4
-25 -10 -25 -5 0 -10 7 -10 15 0 8 -4 15 -8 15 -5 0 -18 9 -29 19 -20 19 -21
19 -38 1 -9 -10 -14 -24 -10 -29 3 -6 1 -11 -5 -11 -7 0 -9 -9 -5 -22 5 -19 4
-20 -5 -8 -9 11 -13 12 -17 2 -2 -6 -9 -10 -14 -6 -11 6 17 64 31 64 6 0 10 9
10 21 0 12 8 23 20 26 16 4 18 11 13 32 -6 24 -3 22 30 -14 34 -37 37 -38 37
-16z m385 -18 c-3 -5 -1 -12 4 -15 11 -7 2 -46 -10 -46 -5 0 -9 14 -9 30 0 22
-5 30 -18 30 -19 0 -42 18 -42 32 0 5 9 4 21 -3 19 -10 20 -9 14 13 -7 22 -6
22 20 -5 14 -15 23 -31 20 -36z m-111 4 c3 -8 12 -15 21 -15 8 0 15 -5 15 -11
0 -5 -4 -8 -9 -5 -4 3 -20 10 -35 16 -15 5 -24 14 -21 20 9 15 22 12 29 -5z
m-54 -32 c0 -7 -4 -13 -9 -13 -10 0 -21 36 -13 45 7 7 22 -15 22 -32z m-275
-32 c-3 -12 -11 -21 -16 -21 -10 0 -12 21 -3 45 10 24 27 2 19 -24z m515 24
c0 -8 -4 -15 -9 -15 -13 0 -22 16 -14 24 11 11 23 6 23 -9z m-195 -5 c3 -5 15
-10 26 -10 21 0 27 -20 7 -20 -7 -1 -3 -9 10 -19 29 -25 28 -33 -5 -25 -53 11
-57 14 -45 26 17 17 15 38 -3 38 -8 0 -15 5 -15 10 0 6 4 10 9 10 6 0 13 -4
16 -10z m-175 -4 c0 -3 -4 -8 -10 -11 -5 -3 -10 -1 -10 4 0 6 5 11 10 11 6 0
10 -2 10 -4z m-115 -16 c3 -5 1 -10 -4 -10 -6 0 -11 5 -11 10 0 6 2 10 4 10 3
0 8 -4 11 -10z m265 -36 c0 -8 -2 -14 -4 -14 -2 0 -13 -3 -23 -7 -16 -6 -16
-5 -4 10 7 9 10 24 7 33 -5 14 -4 15 9 4 8 -7 15 -19 15 -26z m217 19 c2 -6
-3 -13 -12 -16 -10 -5 -15 0 -15 14 0 21 21 22 27 2z m-327 -3 c0 -5 -5 -10
-11 -10 -5 0 -7 5 -4 10 3 6 8 10 11 10 2 0 4 -4 4 -10z m38 -22 c15 -15 16
-28 2 -28 -5 0 -10 6 -10 14 0 8 -6 17 -12 19 -7 3 -8 6 -2 6 5 1 15 -4 22
-11z m212 -18 c-11 -20 -30 -28 -30 -12 0 11 22 32 32 32 5 0 4 -9 -2 -20z
m-523 -10 c-3 -12 -1 -35 4 -53 5 -20 5 -35 -1 -41 -7 -7 -10 -5 -11 5 -2 22
-5 33 -13 51 -4 9 -3 26 4 37 14 27 24 27 17 1z m613 0 c-18 -34 -33 -21 -21
18 1 1 8 2 16 2 13 0 14 -4 5 -20z m90 10 c0 -5 -5 -10 -11 -10 -5 0 -7 5 -4
10 3 6 8 10 11 10 2 0 4 -4 4 -10z m47 -6 c-3 -3 -1 -17 4 -31 5 -14 12 -55
15 -91 3 -37 12 -74 20 -83 18 -20 18 -53 -1 -69 -8 -7 -15 -18 -15 -26 0 -20
-17 -26 -40 -14 -26 14 -26 30 0 30 11 0 20 7 20 15 0 8 -7 15 -15 15 -18 0
-20 21 -3 38 10 10 10 15 -2 22 -12 7 -11 12 4 29 17 19 17 21 2 27 -12 5 -14
10 -6 20 8 9 8 18 1 33 -6 11 -8 27 -5 35 3 9 1 16 -5 16 -6 0 -11 7 -11 16 0
8 5 12 10 9 6 -3 10 -1 10 4 0 6 5 11 12 11 6 0 9 -3 5 -6z m-357 -14 c0 -5
-5 -10 -11 -10 -5 0 -7 5 -4 10 3 6 8 10 11 10 2 0 4 -4 4 -10z m-40 -20 c0
-5 -4 -10 -10 -10 -5 0 -10 5 -10 10 0 6 5 10 10 10 6 0 10 -4 10 -10z m327
-6 c-3 -3 -12 -4 -19 -1 -8 3 -5 6 6 6 11 1 17 -2 13 -5z m-721 -31 c-10 -10
-19 5 -10 18 6 11 8 11 12 0 2 -7 1 -15 -2 -18z m-1428 -22 c3 -8 -1 -12 -9
-9 -7 2 -15 10 -17 17 -3 8 1 12 9 9 7 -2 15 -10 17 -17z m72 -6 c8 -7 23 -15
33 -18 9 -4 17 -11 17 -17 0 -14 -16 -12 -29 4 -6 7 -25 16 -41 20 -17 3 -30
12 -30 20 0 17 23 12 50 -9z m1375 -5 c3 -5 1 -10 -4 -10 -6 0 -11 5 -11 10 0
6 2 10 4 10 3 0 8 -4 11 -10z m-655 -125 c4 -5 10 -27 14 -47 9 -50 -7 -78
-44 -78 -26 0 -29 4 -36 45 -9 61 3 132 24 144 14 8 19 4 25 -22 5 -18 12 -36
17 -42z m670 41 c0 -3 -4 -8 -10 -11 -5 -3 -10 -1 -10 4 0 6 5 11 10 11 6 0
10 -2 10 -4z m210 -26 c0 -5 -5 -10 -11 -10 -5 0 -7 5 -4 10 3 6 8 10 11 10 2
0 4 -4 4 -10z m-160 -14 c0 -3 -4 -8 -10 -11 -5 -3 -10 -1 -10 4 0 6 5 11 10
11 6 0 10 -2 10 -4z m-13 -91 c0 -8 -6 -15 -13 -15 -15 0 -26 15 -17 24 12 11
30 6 30 -9z m-63 -20 c-4 -8 -8 -15 -10 -15 -2 0 -4 7 -4 15 0 8 4 15 10 15 5
0 7 -7 4 -15z m193 3 c7 -13 5 -59 -4 -68 -2 -3 -13 6 -23 20 -15 19 -20 21
-20 9 0 -9 -6 -19 -13 -22 -16 -6 -16 -69 1 -74 6 -3 12 0 12 6 0 6 7 11 15
11 10 0 15 -10 15 -26 0 -22 -2 -24 -15 -14 -8 6 -19 9 -25 5 -5 -3 -10 -1
-10 4 0 6 -9 11 -20 11 -14 0 -20 -7 -20 -22 -1 -24 -18 -52 -36 -59 -7 -3 -6
-15 3 -38 11 -26 17 -31 23 -21 5 9 5 17 -2 21 -7 4 -7 9 0 13 6 3 22 -4 36
-17 25 -23 36 -44 17 -33 -4 3 -23 1 -41 -4 -22 -6 -38 -6 -46 1 -8 7 -14 7
-19 -1 -4 -6 -27 -9 -53 -7 -26 2 -57 0 -70 -4 -20 -8 -21 -12 -11 -31 l11
-21 18 23 c12 16 19 19 25 11 4 -7 13 -10 21 -7 8 3 14 1 14 -4 0 -6 -4 -10
-8 -10 -5 0 -8 -10 -7 -22 1 -16 8 -22 31 -23 16 -1 32 3 36 9 5 7 17 5 37 -7
29 -17 61 -14 61 5 0 11 54 2 87 -14 13 -6 25 -20 29 -31 4 -14 9 -16 17 -8 6
6 15 11 19 11 16 0 8 -19 -18 -45 -28 -28 -25 -38 15 -50 22 -7 23 -5 17 19
-8 33 2 33 33 1 22 -24 22 -25 3 -25 -29 0 -38 -20 -12 -27 37 -10 2 -21 -48
-15 -45 5 -66 17 -56 34 3 4 -13 8 -35 8 -41 0 -56 15 -23 23 10 2 1 7 -22 12
-27 5 -40 4 -46 -5 -6 -9 -9 -9 -15 0 -9 14 11 30 38 30 9 0 17 4 17 9 0 7
-32 8 -72 2 -5 -1 -8 -8 -8 -17 0 -12 -6 -15 -22 -10 -13 4 -29 8 -36 10 -8 1
-17 8 -21 15 -6 9 -11 8 -20 -3 -11 -13 -10 -18 3 -31 18 -18 20 -31 7 -39 -5
-3 -12 6 -15 20 -7 27 -33 28 -28 0 2 -9 -4 -16 -13 -16 -21 0 -19 27 2 39 10
5 15 13 11 17 -10 9 -69 -16 -63 -26 3 -5 1 -11 -5 -15 -5 -3 -10 -2 -10 3 0
12 -69 44 -80 37 -5 -3 -18 -2 -28 4 -15 8 -18 5 -20 -15 -1 -13 2 -24 7 -24
5 0 12 -13 16 -30 5 -24 12 -30 33 -30 24 -1 25 -2 9 -11 -10 -6 -25 -8 -33
-5 -19 7 -18 -14 1 -28 14 -10 13 -13 -5 -28 -11 -10 -20 -14 -21 -10 0 4 -3
20 -5 35 -3 16 0 35 7 43 9 11 8 19 -6 34 -19 21 -55 27 -55 10 0 -5 5 -10 10
-10 6 0 10 -4 10 -10 0 -6 -10 -5 -26 2 -20 9 -27 9 -33 -1 -6 -9 -11 -10 -15
-2 -10 16 -26 14 -26 -4 0 -8 -4 -15 -10 -15 -5 0 -10 4 -10 9 0 5 -11 11 -25
13 -17 4 -25 1 -25 -8 0 -8 -6 -11 -15 -8 -8 4 -15 12 -15 20 0 8 -3 13 -7 13
-20 -3 -24 2 -14 15 9 11 6 13 -16 11 -16 -1 -36 -5 -46 -10 -10 -4 -23 -2
-32 5 -18 15 -20 -1 -3 -18 8 -8 8 -15 -2 -27 -10 -12 -10 -15 3 -15 9 0 17 8
20 18 4 16 4 16 12 -1 9 -21 -1 -34 -30 -39 -16 -2 -20 3 -20 27 -1 26 -4 30
-33 33 -24 2 -36 10 -44 28 -6 13 -17 24 -25 24 -7 0 -13 5 -13 12 0 6 -3 9
-6 5 -9 -8 26 -77 40 -77 17 0 68 -68 56 -75 -6 -4 -23 -4 -39 0 -23 5 -30 13
-35 41 -7 34 -19 43 -31 24 -3 -5 -23 8 -44 30 -44 47 -77 52 -91 15 -9 -25
-35 -34 -42 -15 -2 6 -18 6 -42 0 -46 -10 -62 -4 -45 16 15 18 -1 17 -26 -2
-20 -15 -20 -15 4 -33 18 -14 22 -23 16 -37 -5 -13 -9 -15 -12 -6 -5 14 -39
16 -48 3 -3 -5 -1 -12 5 -16 13 -8 13 -52 0 -60 -5 -3 -10 -1 -10 5 0 6 -6 10
-12 9 -28 -3 -36 2 -42 26 -4 15 -17 30 -31 35 -25 9 -35 30 -14 30 5 0 8 4 5
8 -8 13 7 29 34 37 24 7 25 7 7 -12 -17 -19 -17 -21 5 -36 20 -13 21 -18 10
-37 -12 -20 -11 -20 8 -10 11 6 20 19 20 30 0 10 5 22 10 25 6 3 10 13 10 21
0 12 -4 12 -20 4 -24 -13 -26 -5 -5 17 21 21 12 30 -35 35 -35 3 -39 1 -34
-14 3 -12 0 -18 -9 -18 -8 0 -17 -7 -21 -15 -3 -8 -11 -15 -17 -15 -7 0 -5 8
6 20 26 29 13 53 -25 45 -18 -4 -30 -3 -30 4 0 6 7 8 15 5 22 -9 20 45 -2 63
-13 10 -15 16 -5 19 17 8 15 27 -2 21 -8 -3 -20 1 -27 10 -12 13 -9 15 21 10
62 -10 79 -18 73 -34 -7 -17 22 -15 102 6 118 30 336 -5 365 -60 24 -44 124
-43 211 2 24 12 48 17 60 14 11 -4 27 -1 35 6 9 8 32 10 64 6 54 -6 111 8 158
41 15 10 43 25 62 32 19 8 50 26 68 42 18 15 45 34 61 43 23 11 29 22 29 43
-1 35 8 52 28 52 8 0 14 5 14 10 0 6 5 10 11 10 6 0 9 -8 7 -18 -3 -10 1 -27
8 -37 13 -17 14 -15 14 18 0 25 5 40 15 43 12 5 13 9 3 21 -9 11 -9 16 3 24
12 8 12 10 -1 19 -13 8 -13 10 3 11 9 1 21 2 27 3 5 0 17 11 25 24 18 24 40
29 52 10z m188 -32 c18 7 137 -74 129 -88 -4 -5 5 -3 18 6 25 16 25 16 21 -8
-4 -20 0 -26 20 -31 17 -5 24 -12 20 -21 -3 -8 1 -14 11 -14 9 0 16 -4 16 -10
0 -5 -6 -10 -14 -10 -8 0 -21 -3 -30 -6 -13 -5 -16 1 -16 26 0 29 -3 32 -25
28 -18 -4 -26 0 -31 14 -8 26 -66 78 -86 78 -10 0 -18 4 -18 10 0 5 -6 7 -12
5 -20 -7 -42 11 -32 26 5 9 9 10 11 2 3 -7 10 -10 18 -7z m-50 -21 c0 -10 -6
-20 -12 -22 -8 -3 -13 5 -13 22 0 17 5 25 13 23 6 -3 12 -13 12 -23z m-52 -12
c-4 -10 -11 -21 -16 -24 -12 -8 1 -31 13 -24 5 3 11 1 14 -4 3 -5 15 -7 26 -4
23 6 26 -9 6 -26 -12 -10 -20 -9 -40 4 -14 10 -33 15 -41 11 -9 -3 -15 0 -15
9 0 9 -6 12 -15 9 -8 -4 -15 -1 -15 5 0 6 11 11 25 11 14 0 29 8 35 20 9 17 8
19 -7 14 -15 -5 -16 -4 -3 5 23 17 40 13 33 -6z m-278 -3 c-3 -5 -11 -10 -16
-10 -6 0 -7 5 -4 10 3 6 11 10 16 10 6 0 7 -4 4 -10z m60 -20 c3 -5 1 -10 -4
-10 -6 0 -11 5 -11 10 0 6 2 10 4 10 3 0 8 -4 11 -10z m390 -58 c-7 -7 -45 29
-45 41 0 6 11 0 25 -13 14 -13 23 -26 20 -28z m-70 -2 c-3 -5 -13 -10 -21 -10
-8 0 -12 5 -9 10 3 6 13 10 21 10 8 0 12 -4 9 -10z m113 -38 c2 -7 -2 -10 -12
-6 -9 3 -16 1 -16 -6 0 -7 -8 -9 -19 -5 -11 3 -22 1 -26 -5 -5 -7 -11 -8 -19
-1 -7 6 -17 6 -26 1 -20 -13 -30 -12 -30 0 0 17 50 32 65 20 9 -8 14 -6 19 5
7 19 57 17 64 -3z m42 -2 c0 -5 -5 -10 -11 -10 -5 0 -7 5 -4 10 3 6 8 10 11
10 2 0 4 -4 4 -10z m-350 -10 c0 -5 -4 -10 -10 -10 -5 0 -10 5 -10 10 0 6 5
10 10 10 6 0 10 -4 10 -10z m137 -6 c2 -5 -12 -10 -30 -11 -30 -2 -31 -1 -12
13 20 15 37 14 42 -2z m-1908 -60 c1 -1 0 -7 -4 -13 -8 -14 -105 -14 -105 -1
0 6 7 10 15 10 8 0 15 4 15 9 0 8 68 4 79 -5z m1951 -16 c0 -12 -14 -10 -28 4
-19 19 -14 29 8 16 11 -7 20 -16 20 -20z m-150 12 c0 -5 -5 -10 -11 -10 -5 0
-7 5 -4 10 3 6 8 10 11 10 2 0 4 -4 4 -10z m210 -17 c-1 -20 -16 -31 -30 -22
-13 8 -13 10 0 19 18 12 30 13 30 3z m-1946 -9 c26 -10 18 -22 -21 -33 -42
-12 -53 -8 -53 20 0 14 7 19 29 19 16 0 36 -3 45 -6z m1776 -4 c0 -5 -5 -10
-11 -10 -5 0 -7 5 -4 10 3 6 8 10 11 10 2 0 4 -4 4 -10z m-1713 -26 c-9 -9
-28 6 -21 18 4 6 10 6 17 -1 6 -6 8 -13 4 -17z m103 6 c0 -5 -4 -10 -10 -10
-5 0 -10 5 -10 10 0 6 5 10 10 10 6 0 10 -4 10 -10z m-33 -16 c-3 -3 -12 -4
-19 -1 -8 3 -5 6 6 6 11 1 17 -2 13 -5z m1703 2 c0 -3 -4 -8 -10 -11 -5 -3
-10 -1 -10 4 0 6 5 11 10 11 6 0 10 -2 10 -4z m-2063 -12 c-3 -3 -12 -4 -19
-1 -8 3 -5 6 6 6 11 1 17 -2 13 -5z m2312 -33 c-14 -4 -30 19 -22 33 3 5 12 1
20 -10 10 -13 10 -20 2 -23z m-1939 -15 c0 -3 -4 -8 -10 -11 -5 -3 -10 -1 -10
4 0 6 5 11 10 11 6 0 10 -2 10 -4z m59 -85 c11 -7 11 -10 0 -17 -36 -23 -59
-32 -64 -24 -2 4 4 10 15 13 11 3 20 12 20 21 0 18 8 20 29 7z m26 -81 c-10
-16 -23 -12 -27 8 -3 14 -6 13 -17 -7 -7 -13 -9 -26 -4 -30 4 -3 9 -18 10 -33
1 -22 -2 -26 -14 -19 -20 11 -27 91 -8 91 7 0 15 10 18 22 l6 23 21 -23 c12
-12 18 -27 15 -32z m440 40 c-3 -5 -11 -10 -16 -10 -6 0 -7 5 -4 10 3 6 11 10
16 10 6 0 7 -4 4 -10z m850 0 c4 -6 15 -8 26 -5 11 4 19 2 19 -4 0 -12 -29
-15 -54 -5 -9 3 -16 10 -16 15 0 12 17 11 25 -1z m1926 -13 c-1 -12 -15 -9
-19 4 -3 6 1 10 8 8 6 -3 11 -8 11 -12z m-2823 -9 c-6 -18 -28 -21 -28 -4 0 9
7 16 16 16 9 0 14 -5 12 -12z m722 -3 c0 -8 -4 -15 -10 -15 -5 0 -10 7 -10 15
0 8 5 15 10 15 6 0 10 -7 10 -15z m54 -32 c-20 -32 -34 -27 -22 7 8 23 13 29
22 20 7 -7 7 -15 0 -27z m497 25 c1 -7 1 -17 0 -22 -1 -5 7 -15 19 -23 15 -11
18 -21 14 -40 -4 -16 -2 -28 7 -33 11 -7 11 -13 -1 -34 -15 -29 -38 -34 -46
-11 -4 10 -13 13 -25 10 -11 -4 -19 -2 -19 4 0 6 5 11 10 11 6 0 10 7 10 16 0
9 7 14 18 12 11 -3 16 -12 14 -27 -1 -15 2 -21 10 -18 21 7 9 67 -18 92 -27
25 -33 75 -9 75 8 0 16 -6 16 -12z m-1341 -18 c0 -5 -5 -10 -11 -10 -5 0 -7 5
-4 10 3 6 8 10 11 10 2 0 4 -4 4 -10z m1090 0 c0 -5 -4 -10 -10 -10 -5 0 -10
5 -10 10 0 6 5 10 10 10 6 0 10 -4 10 -10z m-1366 -25 c6 -11 17 -25 25 -31 8
-6 11 -18 8 -28 -5 -11 -1 -16 13 -16 11 0 20 -4 20 -9 0 -5 3 -18 6 -28 5
-17 5 -17 -6 0 -7 11 -18 16 -30 12 -15 -5 -21 0 -26 19 -4 19 -13 26 -30 26
-13 0 -24 4 -24 9 0 5 -3 23 -6 41 -6 29 -5 31 16 28 13 -1 28 -12 34 -23z
m-210 9 c9 -3 16 -13 16 -21 0 -20 -34 -12 -38 10 -4 19 -1 20 22 11z m532
-21 c-7 -7 -26 7 -26 19 0 6 6 6 15 -2 9 -7 13 -15 11 -17z m1084 17 c0 -5 -4
-10 -10 -10 -5 0 -10 5 -10 10 0 6 5 10 10 10 6 0 10 -4 10 -10z m110 -6 c0
-8 -5 -12 -10 -9 -6 4 -8 11 -5 16 9 14 15 11 15 -7z m189 -10 c3 -16 1 -17
-13 -5 -19 16 -21 34 -3 29 6 -3 14 -13 16 -24z m-1039 6 c0 -5 -4 -10 -10
-10 -5 0 -10 5 -10 10 0 6 5 10 10 10 6 0 10 -4 10 -10z m260 -6 c0 -9 -7 -14
-17 -12 -25 5 -28 28 -4 28 12 0 21 -6 21 -16z m270 -5 c0 -18 3 -19 15 -9 19
16 40 3 24 -16 -14 -17 -39 -17 -61 0 -21 15 -23 32 -5 39 22 10 27 7 27 -14z
m-1445 -8 c-3 -6 -11 -11 -17 -11 -6 0 -6 6 2 15 14 17 26 13 15 -4z m95 -11
c-17 -13 -20 -19 -9 -23 10 -4 9 -6 -3 -6 -24 -1 -24 35 -1 48 28 15 38 0 13
-19z m520 20 c0 -5 -4 -10 -10 -10 -5 0 -10 5 -10 10 0 6 5 10 10 10 6 0 10
-4 10 -10z m350 -6 c0 -8 -4 -12 -10 -9 -5 3 -10 10 -10 16 0 5 5 9 10 9 6 0
10 -7 10 -16z m550 6 c0 -5 -2 -10 -4 -10 -3 0 -8 5 -11 10 -3 6 -1 10 4 10 6
0 11 -4 11 -10z m-800 -19 c0 -11 6 -21 13 -24 6 -2 8 -8 4 -13 -4 -5 -11 -4
-15 2 -12 18 -44 25 -58 13 -8 -6 -14 -7 -14 -3 0 9 49 43 63 44 4 0 7 -9 7
-19z m400 9 c13 -8 13 -10 -2 -10 -9 0 -20 5 -23 10 -8 13 5 13 25 0z m-1320
-20 c0 -5 7 -10 15 -10 8 0 15 -6 15 -13 0 -24 -45 -13 -48 11 -2 12 1 22 7
22 6 0 11 -4 11 -10z m2020 -1 c0 -17 -20 -49 -30 -49 -6 0 -10 7 -10 15 0 8
5 15 10 15 6 0 10 7 10 15 0 8 5 15 10 15 6 0 10 -5 10 -11z m-1950 -19 c0 -5
-2 -10 -4 -10 -3 0 -8 5 -11 10 -3 6 -1 10 4 10 6 0 11 -4 11 -10z m1800 -10
c0 -5 -2 -10 -4 -10 -3 0 -8 5 -11 10 -3 6 -1 10 4 10 6 0 11 -4 11 -10z
m-1940 -15 c0 -8 -4 -15 -10 -15 -5 0 -10 7 -10 15 0 8 5 15 10 15 6 0 10 -7
10 -15z m428 4 c-2 -6 -8 -10 -13 -10 -5 0 -11 4 -13 10 -2 6 4 11 13 11 9 0
15 -5 13 -11z m612 -14 c-7 -9 -15 -13 -17 -11 -6 6 20 36 26 30 2 -2 -2 -10
-9 -19z m-870 5 c0 -5 9 -10 19 -10 20 0 35 -25 25 -41 -3 -5 -18 -8 -32 -7
-21 2 -28 -2 -30 -19 -4 -28 -22 -31 -22 -4 0 28 -21 37 -36 16 -8 -10 -17
-16 -20 -12 -3 3 3 16 15 28 12 13 21 29 21 36 0 8 5 11 11 8 6 -4 8 -14 5
-22 -4 -10 0 -13 12 -11 11 2 16 11 14 26 -2 12 2 22 7 22 6 0 11 -4 11 -10z
m195 0 c3 -5 1 -10 -4 -10 -6 0 -11 5 -11 10 0 6 2 10 4 10 3 0 8 -4 11 -10z
m1400 0 c3 -5 1 -10 -4 -10 -6 0 -11 5 -11 10 0 6 2 10 4 10 3 0 8 -4 11 -10z
m-1731 -9 c3 -5 -1 -14 -9 -21 -7 -6 -11 -19 -9 -28 5 -15 4 -14 -6 1 -6 9 -8
26 -5 37 7 21 20 26 29 11z m445 -10 c10 -7 11 -13 1 -32 -12 -21 -14 -21 -25
-6 -7 9 -22 17 -33 17 -11 0 -24 5 -28 11 -5 8 3 10 25 7 17 -2 31 -1 31 4 0
10 11 10 29 -1z m925 -7 c9 -24 8 -26 -14 -14 -11 6 -18 15 -15 21 9 14 22 11
29 -7z m-1136 -63 c-12 -19 -54 -25 -64 -10 -3 5 -1 9 4 9 6 0 15 15 22 33
l11 32 19 -23 c15 -19 17 -27 8 -41z m102 26 c0 -5 -4 -5 -10 -2 -5 3 -10 14
-10 23 0 15 2 15 10 2 5 -8 10 -19 10 -23z m1840 23 c0 -5 -7 -10 -15 -10 -8
0 -15 5 -15 10 0 6 7 10 15 10 8 0 15 -4 15 -10z m82 -12 c22 -33 31 -68 19
-68 -6 0 -11 6 -11 14 0 8 -12 24 -27 36 -22 17 -25 23 -13 30 8 6 16 10 16
10 1 0 8 -10 16 -22z m-787 2 c-3 -5 -10 -10 -16 -10 -5 0 -9 5 -9 10 0 6 7
10 16 10 8 0 12 -4 9 -10z m-941 -15 c4 -11 -1 -15 -19 -15 -29 0 -34 16 -7
23 9 3 18 5 18 6 1 0 4 -6 8 -14z m576 1 c6 -8 18 -12 26 -9 8 3 14 -1 14 -10
0 -11 -9 -15 -30 -15 -18 1 -30 6 -30 15 0 7 -3 12 -7 12 -5 -1 -15 -1 -23 1
-11 1 -9 4 5 10 28 12 31 12 45 -4z m-1210 0 c0 -3 -4 -8 -10 -11 -5 -3 -10
-1 -10 4 0 6 5 11 10 11 6 0 10 -2 10 -4z m2310 -6 c0 -5 -7 -7 -15 -4 -8 4
-15 8 -15 10 0 2 7 4 15 4 8 0 15 -4 15 -10z m-2283 -22 c-3 -8 -6 -5 -6 6 -1
11 2 17 5 13 3 -3 4 -12 1 -19z m686 0 c-6 -11 -43 -10 -43 1 0 5 11 8 24 7
13 0 22 -4 19 -8z m1381 -4 c13 -5 14 -9 5 -20 -13 -16 -29 -9 -29 12 0 16 2
16 24 8z m200 -9 c3 -8 1 -15 -4 -15 -6 0 -10 7 -10 15 0 8 2 15 4 15 2 0 6
-7 10 -15z m-1854 -5 c0 -5 -2 -10 -4 -10 -3 0 -8 5 -11 10 -3 6 -1 10 4 10 6
0 11 -4 11 -10z m95 0 c3 -5 1 -10 -4 -10 -6 0 -11 5 -11 10 0 6 2 10 4 10 3
0 8 -4 11 -10z m1515 3 c-8 -3 -21 -10 -27 -16 -9 -7 -13 -5 -13 7 0 11 8 16
28 15 15 0 21 -3 12 -6z m-1650 -23 c0 -5 -4 -10 -10 -10 -5 0 -10 5 -10 10 0
6 5 10 10 10 6 0 10 -4 10 -10z m1585 0 c3 -5 -1 -10 -10 -10 -9 0 -13 5 -10
10 3 6 8 10 10 10 2 0 7 -4 10 -10z m-2005 -10 c0 -5 -2 -10 -4 -10 -3 0 -8 5
-11 10 -3 6 -1 10 4 10 6 0 11 -4 11 -10z m2440 -6 c0 -14 -3 -14 -15 -4 -8 7
-15 14 -15 16 0 2 7 4 15 4 8 0 15 -7 15 -16z m-2255 -3 c3 -5 1 -12 -5 -16
-5 -3 -10 1 -10 9 0 18 6 21 15 7z m285 -7 c0 -8 -4 -12 -10 -9 -5 3 -10 10
-10 16 0 5 5 9 10 9 6 0 10 -7 10 -16z m1122 -16 c-8 -8 -9 -4 -5 13 4 13 8
18 11 10 2 -7 -1 -18 -6 -23z m58 12 c0 -5 -2 -10 -4 -10 -3 0 -8 5 -11 10 -3
6 -1 10 4 10 6 0 11 -4 11 -10z m-1700 -16 c0 -17 -22 -14 -28 4 -2 7 3 12 12
12 9 0 16 -7 16 -16z m617 10 c-3 -3 -12 -4 -19 -1 -8 3 -5 6 6 6 11 1 17 -2
13 -5z m-207 -22 c0 -10 -41 -35 -47 -28 -9 8 17 36 33 36 8 0 14 -3 14 -8z
m101 -19 c13 -16 12 -17 -3 -4 -17 13 -22 21 -14 21 2 0 10 -8 17 -17z m-491
-3 c0 -5 -5 -30 -12 -55 -13 -48 -34 -59 -59 -29 -11 14 -9 20 19 43 18 14 32
32 32 39 0 6 5 12 10 12 6 0 10 -4 10 -10z m210 -10 c0 -5 -7 -10 -16 -10 -8
0 -12 5 -9 10 3 6 10 10 16 10 5 0 9 -4 9 -10z m200 -10 c0 -5 -2 -10 -4 -10
-3 0 -8 5 -11 10 -3 6 -1 10 4 10 6 0 11 -4 11 -10z m-120 -24 c0 -2 -7 -9
-15 -16 -13 -11 -14 -10 -9 4 5 14 24 23 24 12z m250 -6 c0 -5 -5 -10 -11 -10
-5 0 -7 5 -4 10 3 6 8 10 11 10 2 0 4 -4 4 -10z m-60 -10 c0 -5 -4 -10 -10
-10 -5 0 -10 5 -10 10 0 6 5 10 10 10 6 0 10 -4 10 -10z m698 -478 c6 -18 -15
-14 -22 4 -4 10 -1 14 6 12 6 -2 14 -10 16 -16z m952 14 c0 -11 -19 -15 -25
-6 -3 5 1 10 9 10 9 0 16 -2 16 -4z m78 -512 c108 -54 158 -171 116 -272 -36
-87 -130 -141 -222 -127 -40 6 -55 15 -102 63 -74 76 -95 145 -68 223 41 121
161 170 276 113z m-771 -30 c19 -25 28 -51 31 -90 6 -72 -5 -84 -76 -84 l-56
0 44 -46 c25 -25 69 -64 98 -85 70 -53 71 -89 1 -68 -23 7 -61 40 -119 104
-47 52 -90 94 -96 94 -6 1 -8 -18 -5 -51 4 -29 5 -74 3 -100 l-3 -46 -76 -4
c-41 -2 -79 0 -85 3 -20 13 -29 96 -22 207 5 97 9 113 23 110 10 -2 17 -15 19
-36 3 -33 4 -33 50 -30 l47 3 3 53 3 52 -60 0 c-32 0 -66 3 -75 6 -15 6 -22
35 -12 45 2 2 79 3 170 1 l166 -3 27 -35z m-794 3 c-4 -7 -42 -44 -83 -83
-111 -104 -240 -233 -240 -239 0 -3 68 -5 150 -5 153 0 160 -2 140 -39 -8 -17
-25 -18 -212 -14 -112 3 -205 7 -208 10 -3 3 71 78 164 167 l170 162 -121 -4
c-116 -4 -121 -4 -128 17 -3 11 -3 25 0 31 4 6 78 10 191 10 148 0 183 -3 177
-13z m647 -479 c0 -16 -6 -19 -32 -16 -29 3 -33 7 -36 36 l-3 32 35 -17 c23
-10 36 -24 36 -35z"/>
<path d="M4160 5500 c0 -5 9 -10 21 -10 11 0 17 5 14 10 -3 6 -13 10 -21 10
-8 0 -14 -4 -14 -10z"/>
<path d="M4405 5469 c-4 -6 -5 -13 -2 -16 7 -7 27 6 27 18 0 12 -17 12 -25 -2z"/>
<path d="M4522 5468 c6 -18 28 -21 28 -4 0 9 -7 16 -16 16 -9 0 -14 -5 -12
-12z"/>
<path d="M4847 5434 c3 -7 11 -10 19 -7 8 3 14 0 14 -6 0 -6 5 -11 11 -11 6 0
9 8 7 18 -2 11 -13 17 -30 17 -16 1 -24 -4 -21 -11z"/>
<path d="M4410 5410 c0 -5 5 -10 10 -10 6 0 10 5 10 10 0 6 -4 10 -10 10 -5 0
-10 -4 -10 -10z"/>
<path d="M4715 5410 c3 -5 8 -10 11 -10 2 0 4 5 4 10 0 6 -5 10 -11 10 -5 0
-7 -4 -4 -10z"/>
<path d="M3938 5403 c-21 -5 -24 -33 -5 -33 8 0 22 9 32 20 19 21 13 24 -27
13z"/>
<path d="M4930 5399 c0 -5 5 -7 10 -4 6 3 10 8 10 11 0 2 -4 4 -10 4 -5 0 -10
-5 -10 -11z"/>
<path d="M4003 5381 c-19 -5 -20 -8 -8 -25 14 -18 15 -18 39 2 22 17 23 20 8
24 -9 2 -27 2 -39 -1z"/>
<path d="M3805 5320 c3 -5 8 -10 11 -10 2 0 4 5 4 10 0 6 -5 10 -11 10 -5 0
-7 -4 -4 -10z"/>
<path d="M2690 5270 c0 -5 7 -10 15 -10 8 0 15 5 15 10 0 6 -7 10 -15 10 -8 0
-15 -4 -15 -10z"/>
<path d="M4980 5250 c0 -5 5 -10 10 -10 6 0 10 5 10 10 0 6 -4 10 -10 10 -5 0
-10 -4 -10 -10z"/>
<path d="M2380 4910 c0 -5 5 -10 11 -10 5 0 7 5 4 10 -3 6 -8 10 -11 10 -2 0
-4 -4 -4 -10z"/>
<path d="M2435 4100 c-3 -5 -1 -10 4 -10 6 0 11 5 11 10 0 6 -2 10 -4 10 -3 0
-8 -4 -11 -10z"/>
<path d="M2980 3981 c0 -6 5 -13 10 -16 6 -3 10 1 10 9 0 9 -4 16 -10 16 -5 0
-10 -4 -10 -9z"/>
<path d="M5084 3396 c-9 -38 6 -52 22 -21 14 27 11 45 -6 45 -5 0 -12 -11 -16
-24z"/>
<path d="M5129 3353 c-8 -9 -9 -14 -2 -10 6 4 13 1 16 -5 3 -10 8 -10 16 -2 9
8 8 14 -2 23 -11 9 -17 8 -28 -6z"/>
<path d="M5086 3281 c-4 -5 -2 -12 3 -15 5 -4 12 -2 15 3 4 5 2 12 -3 15 -5 4
-12 2 -15 -3z"/>
<path d="M2480 3030 c0 -5 5 -10 10 -10 6 0 10 5 10 10 0 6 -4 10 -10 10 -5 0
-10 -4 -10 -10z"/>
<path d="M3825 2910 c-3 -5 -1 -10 4 -10 6 0 11 5 11 10 0 6 -2 10 -4 10 -3 0
-8 -4 -11 -10z"/>
<path d="M2995 2840 c-3 -5 -1 -10 4 -10 6 0 11 5 11 10 0 6 -2 10 -4 10 -3 0
-8 -4 -11 -10z"/>
<path d="M2510 2830 c-8 -5 -11 -12 -7 -16 4 -4 15 0 24 9 18 18 8 23 -17 7z"/>
<path d="M4736 2825 c-9 -25 -8 -27 17 -23 12 2 22 10 22 18 0 21 -31 24 -39
5z"/>
<path d="M3410 2820 c0 -5 5 -10 10 -10 6 0 10 5 10 10 0 6 -4 10 -10 10 -5 0
-10 -4 -10 -10z"/>
<path d="M2745 2810 c-3 -5 -1 -10 4 -10 6 0 11 5 11 10 0 6 -2 10 -4 10 -3 0
-8 -4 -11 -10z"/>
<path d="M3010 2805 c-8 -9 -8 -15 -2 -15 12 0 26 19 19 26 -2 2 -10 -2 -17
-11z"/>
<path d="M4800 5300 c0 -5 5 -10 10 -10 6 0 10 5 10 10 0 6 -4 10 -10 10 -5 0
-10 -4 -10 -10z"/>
<path d="M4446 4007 c-3 -12 -1 -23 4 -25 5 -2 6 -10 3 -18 -3 -8 0 -14 6 -14
6 0 11 9 11 19 0 11 3 26 6 34 3 8 -1 17 -9 20 -10 4 -17 -2 -21 -16z"/>
<path d="M4370 3835 c0 -8 4 -15 10 -15 5 0 7 7 4 15 -4 8 -8 15 -10 15 -2 0
-4 -7 -4 -15z"/>
<path d="M3178 3833 c7 -3 16 -2 19 1 4 3 -2 6 -13 5 -11 0 -14 -3 -6 -6z"/>
<path d="M4580 3812 c0 -12 23 -32 37 -32 22 0 15 16 -12 28 -14 6 -25 8 -25
4z"/>
<path d="M4480 3806 c0 -2 7 -6 15 -10 8 -3 15 -1 15 4 0 6 -7 10 -15 10 -8 0
-15 -2 -15 -4z"/>
<path d="M3490 3775 c-7 -9 -10 -18 -7 -22 8 -7 37 15 37 28 0 14 -16 11 -30
-6z"/>
<path d="M4315 3780 c-3 -5 1 -10 9 -10 9 0 16 5 16 10 0 6 -4 10 -9 10 -6 0
-13 -4 -16 -10z"/>
<path d="M3344 3764 c3 -9 6 -18 6 -20 0 -3 4 -3 10 1 11 7 2 35 -12 35 -6 0
-7 -7 -4 -16z"/>
<path d="M3400 3770 c0 -5 5 -10 11 -10 5 0 7 5 4 10 -3 6 -8 10 -11 10 -2 0
-4 -4 -4 -10z"/>
<path d="M4230 3770 c20 -13 33 -13 25 0 -3 6 -14 10 -23 10 -15 0 -15 -2 -2
-10z"/>
<path d="M4640 3766 c0 -14 29 -31 38 -21 6 6 -18 35 -29 35 -5 0 -9 -6 -9
-14z"/>
<path d="M3580 3749 c0 -5 5 -7 10 -4 6 3 10 8 10 11 0 2 -4 4 -10 4 -5 0 -10
-5 -10 -11z"/>
<path d="M3428 3742 c-19 -4 -24 -17 -9 -26 5 -3 14 1 21 9 15 18 12 23 -12
17z"/>
<path d="M4080 3730 c0 -5 -7 -7 -15 -4 -24 10 -65 -5 -65 -22 0 -9 6 -14 13
-12 6 3 33 11 60 19 48 14 63 29 27 29 -11 0 -20 -4 -20 -10z"/>
<path d="M3935 3721 c-6 -11 29 -33 39 -24 7 7 -12 33 -25 33 -4 0 -10 -4 -14
-9z"/>
<path d="M4584 2215 c-63 -66 -70 -124 -22 -195 29 -43 80 -78 126 -86 46 -9
97 17 129 65 51 76 43 131 -31 207 -50 52 -54 54 -106 54 -50 0 -56 -3 -96
-45z"/>
<path d="M3830 2180 l0 -60 44 0 c24 0 58 3 75 6 37 8 41 33 11 82 -18 30 -23
32 -75 32 l-55 0 0 -60z"/>
<path d="M3686 2033 c1 -27 3 -60 3 -75 1 -26 4 -28 47 -28 l46 0 -4 65 c-2
50 1 68 12 75 10 7 -4 10 -46 10 l-61 0 3 -47z"/>
<path d="M265 6173 c-16 -9 -37 -19 -45 -23 -19 -9 -43 -56 -47 -94 -3 -27 -1
-28 28 -24 25 4 33 1 37 -14 5 -19 26 -21 21 -3 -10 42 -13 45 -29 40 -23 -7
-37 13 -16 21 9 3 16 14 17 23 0 10 2 11 6 4 9 -24 25 -14 19 12 -5 19 -3 23
9 18 9 -3 22 2 30 13 13 18 14 18 15 2 0 -25 17 -22 25 3 4 11 5 22 3 24 -14
12 -48 12 -73 -2z"/>
<path d="M53 6093 c-7 -2 -13 -11 -13 -18 0 -7 6 -15 13 -18 10 -4 10 -7 0
-18 -9 -9 -13 -9 -13 -1 0 6 -8 16 -17 21 -16 8 -18 4 -21 -32 -2 -33 0 -39 9
-30 10 10 16 10 27 1 9 -8 16 -8 20 -1 4 6 17 13 30 17 23 8 29 21 12 31 -5 3
-10 17 -10 31 0 23 -11 28 -37 17z"/>
<path d="M286 6078 c3 -5 10 -6 15 -3 13 9 11 12 -6 12 -8 0 -12 -4 -9 -9z"/>
<path d="M275 6040 c-3 -5 1 -10 9 -10 9 0 16 5 16 10 0 6 -4 10 -9 10 -6 0
-13 -4 -16 -10z"/>
<path d="M97 5980 c3 -11 9 -17 14 -14 14 8 10 34 -5 34 -9 0 -12 -7 -9 -20z"/>
<path d="M140 5960 c0 -5 5 -10 10 -10 6 0 10 5 10 10 0 6 -4 10 -10 10 -5 0
-10 -4 -10 -10z"/>
<path d="M57 5919 c-7 -28 1 -42 19 -35 9 3 16 -4 20 -20 5 -19 9 -22 20 -13
7 6 18 8 23 5 13 -9 22 9 15 28 -8 21 -24 21 -24 0 0 -14 -3 -14 -16 -3 -8 7
-13 21 -11 31 3 10 1 18 -3 18 -5 0 -15 3 -23 6 -9 3 -16 -3 -20 -17z"/>
<path d="M248 5915 c-7 -32 8 -43 16 -12 8 30 7 37 -3 37 -5 0 -11 -11 -13
-25z"/>
<path d="M170 5910 c20 -13 33 -13 25 0 -3 6 -14 10 -23 10 -15 0 -15 -2 -2
-10z"/>
<path d="M1 5880 c-2 -37 12 -60 35 -60 13 0 24 5 24 10 0 6 -4 10 -10 10 -5
0 -10 7 -10 15 0 8 -6 15 -14 15 -8 0 -17 6 -19 13 -4 8 -6 7 -6 -3z"/>
<path d="M220 5820 c0 -11 2 -20 4 -20 2 0 6 9 9 20 3 11 1 20 -4 20 -5 0 -9
-9 -9 -20z"/>
<path d="M180 5809 c0 -5 5 -7 10 -4 6 3 10 8 10 11 0 2 -4 4 -10 4 -5 0 -10
-5 -10 -11z"/>
<path d="M85 5800 c4 -6 1 -18 -6 -26 -17 -20 -5 -28 14 -9 16 16 13 45 -5 45
-5 0 -6 -5 -3 -10z"/>
<path d="M270 5800 c0 -5 5 -10 10 -10 6 0 10 5 10 10 0 6 -4 10 -10 10 -5 0
-10 -4 -10 -10z"/>
<path d="M132 5788 c-15 -15 -15 -38 -2 -58 8 -11 9 -8 4 13 -5 23 -3 29 15
34 11 3 18 9 15 14 -7 12 -18 11 -32 -3z"/>
<path d="M597 5733 c-10 -9 -9 -23 2 -23 5 0 11 7 15 15 5 15 -5 20 -17 8z"/>
<path d="M7492 5604 c2 -11 25 -22 73 -35 86 -23 115 -24 115 -4 0 9 -9 15
-25 15 -13 0 -44 6 -67 14 -83 27 -100 28 -96 10z"/>
<path d="M7558 5528 c-36 -12 -35 -23 1 -38 44 -18 96 -10 96 15 0 15 -6 19
-24 17 -13 -1 -29 2 -35 7 -6 5 -23 4 -38 -1z"/>
<path d="M85 5495 c17 -13 18 -17 5 -25 -19 -12 -8 -22 14 -14 24 9 16 35 -14
45 -24 9 -24 8 -5 -6z"/>
<path d="M7534 5435 c-7 -30 9 -81 26 -77 7 2 9 -5 5 -18 -5 -15 -2 -20 13
-20 13 0 18 -7 18 -22 -1 -25 29 -37 47 -19 7 7 3 8 -12 4 -18 -4 -21 -1 -22
23 -1 16 -1 35 0 42 1 6 -3 12 -8 12 -6 0 -8 7 -4 16 3 9 0 19 -6 24 -10 6
-10 12 0 28 7 12 10 25 5 29 -4 4 -12 0 -17 -10 -6 -9 -17 -17 -26 -17 -14 0
-14 2 3 15 17 13 17 14 2 15 -10 0 -20 -10 -24 -25z"/>
<path d="M7660 5450 c0 -6 -4 -9 -8 -6 -5 3 -9 -9 -8 -27 1 -22 6 -33 19 -35
9 -2 17 1 17 7 0 6 -7 11 -15 11 -19 0 -19 9 1 31 10 11 12 19 5 24 -6 3 -11
1 -11 -5z"/>
<path d="M100 5406 c0 -2 7 -6 15 -10 8 -3 15 -1 15 4 0 6 -7 10 -15 10 -8 0
-15 -2 -15 -4z"/>
<path d="M7663 5335 c-10 -10 -9 -16 2 -25 13 -10 15 -8 15 14 0 30 -1 30 -17
11z"/>
<path d="M7572 5249 c7 -19 14 -27 20 -21 6 6 5 17 -4 31 -19 31 -29 26 -16
-10z"/>
<path d="M7662 5245 c-11 -12 -10 -15 3 -15 8 0 15 7 15 15 0 18 -2 18 -18 0z"/>
<path d="M7610 5205 c0 -2 10 -10 23 -16 20 -11 21 -11 8 4 -13 16 -31 23 -31
12z"/>
<path d="M7590 5180 c0 -5 5 -10 11 -10 5 0 7 5 4 10 -3 6 -8 10 -11 10 -2 0
-4 -4 -4 -10z"/>
<path d="M78 5164 c-5 -5 -14 -7 -48 -13 -9 -2 25 -21 36 -21 7 0 15 7 18 16
7 18 3 28 -6 18z"/>
<path d="M7648 5148 c-27 -9 -39 -28 -18 -28 6 0 8 -10 4 -24 -5 -21 -3 -24
15 -19 26 7 28 -13 2 -27 -15 -7 -23 -6 -35 6 -9 8 -16 14 -16 12 0 -23 22
-130 31 -151 11 -26 13 -27 30 -11 16 14 19 32 19 105 0 50 -4 91 -10 94 -8 5
-7 11 0 21 19 21 8 32 -22 22z"/>
<path d="M7590 5104 c0 -17 22 -14 28 4 2 7 -3 12 -12 12 -9 0 -16 -7 -16 -16z"/>
<path d="M9 5072 c8 -15 8 -21 -2 -25 -9 -3 -9 -7 2 -20 9 -12 10 -17 2 -17
-8 0 -11 -14 -9 -37 4 -50 31 -57 47 -12 15 43 14 79 -2 79 -8 0 -13 10 -13
22 1 14 -6 24 -17 26 -16 3 -17 1 -8 -16z m26 -92 c3 -5 1 -10 -4 -10 -6 0
-11 5 -11 10 0 6 2 10 4 10 3 0 8 -4 11 -10z"/>
<path d="M61 5074 c0 -11 3 -14 6 -6 3 7 2 16 -1 19 -3 4 -6 -2 -5 -13z"/>
<path d="M6685 4950 c-3 -5 1 -10 9 -10 9 0 16 5 16 10 0 6 -4 10 -9 10 -6 0
-13 -4 -16 -10z"/>
<path d="M6 4901 c-3 -5 1 -11 9 -15 9 -3 15 0 15 9 0 16 -16 20 -24 6z"/>
<path d="M7640 4861 c0 -18 18 -21 30 -6 10 13 9 15 -9 15 -11 0 -21 -4 -21
-9z"/>
<path d="M0 4846 c0 -9 5 -16 10 -16 6 0 10 4 10 9 0 6 -4 13 -10 16 -5 3 -10
-1 -10 -9z"/>
<path d="M1 4804 c0 -11 3 -14 6 -6 3 7 2 16 -1 19 -3 4 -6 -2 -5 -13z"/>
<path d="M7650 4811 c0 -5 5 -13 10 -16 6 -3 10 -2 10 4 0 5 -4 13 -10 16 -5
3 -10 2 -10 -4z"/>
<path d="M7671 4734 c0 -11 3 -14 6 -6 3 7 2 16 -1 19 -3 4 -6 -2 -5 -13z"/>
<path d="M6905 4720 c3 -5 8 -10 11 -10 2 0 4 5 4 10 0 6 -5 10 -11 10 -5 0
-7 -4 -4 -10z"/>
<path d="M20 4620 c0 -5 5 -10 10 -10 6 0 10 5 10 10 0 6 -4 10 -10 10 -5 0
-10 -4 -10 -10z"/>
<path d="M670 4540 c0 -5 5 -10 10 -10 6 0 10 5 10 10 0 6 -4 10 -10 10 -5 0
-10 -4 -10 -10z"/>
<path d="M495 4510 c-3 -5 -1 -10 4 -10 6 0 11 5 11 10 0 6 -2 10 -4 10 -3 0
-8 -4 -11 -10z"/>
<path d="M540 4509 c0 -5 5 -7 10 -4 6 3 10 8 10 11 0 2 -4 4 -10 4 -5 0 -10
-5 -10 -11z"/>
<path d="M670 4460 c0 -5 7 -10 16 -10 8 0 12 5 9 10 -3 6 -10 10 -16 10 -5 0
-9 -4 -9 -10z"/>
<path d="M7468 4453 c7 -3 16 -2 19 1 4 3 -2 6 -13 5 -11 0 -14 -3 -6 -6z"/>
<path d="M7490 4279 c0 -5 5 -7 10 -4 6 3 10 8 10 11 0 2 -4 4 -10 4 -5 0 -10
-5 -10 -11z"/>
<path d="M750 4190 c0 -5 5 -10 11 -10 5 0 7 5 4 10 -3 6 -8 10 -11 10 -2 0
-4 -4 -4 -10z"/>
<path d="M240 3903 c0 -23 12 -43 26 -43 19 0 18 7 -6 32 -11 12 -20 17 -20
11z"/>
<path d="M7470 3903 c0 -5 5 -15 10 -23 8 -12 10 -11 10 8 0 12 -4 22 -10 22
-5 0 -10 -3 -10 -7z"/>
<path d="M535 3880 c3 -5 8 -10 11 -10 2 0 4 5 4 10 0 6 -5 10 -11 10 -5 0 -7
-4 -4 -10z"/>
<path d="M7566 3625 c-3 -9 -6 -22 -5 -28 0 -7 5 -1 10 12 5 13 8 26 5 28 -2
2 -6 -3 -10 -12z"/>
<path d="M7260 3430 c0 -5 4 -10 9 -10 6 0 13 5 16 10 3 6 -1 10 -9 10 -9 0
-16 -4 -16 -10z"/>
<path d="M541 3314 c0 -11 3 -14 6 -6 3 7 2 16 -1 19 -3 4 -6 -2 -5 -13z"/>
<path d="M320 3258 c0 -30 1 -30 14 -13 14 19 11 45 -5 45 -5 0 -9 -14 -9 -32z"/>
<path d="M298 2963 c6 -2 18 -2 25 0 6 3 1 5 -13 5 -14 0 -19 -2 -12 -5z"/>
<path d="M420 2899 c0 -5 5 -7 10 -4 6 3 10 8 10 11 0 2 -4 4 -10 4 -5 0 -10
-5 -10 -11z"/>
<path d="M390 2590 c0 -5 7 -7 15 -4 8 4 15 8 15 10 0 2 -7 4 -15 4 -8 0 -15
-4 -15 -10z"/>
<path d="M500 2501 c0 -11 31 -24 39 -16 3 3 -1 10 -9 15 -19 12 -30 12 -30 1z"/>
<path d="M7615 2500 c-3 -5 1 -10 10 -10 9 0 13 5 10 10 -3 6 -8 10 -10 10 -2
0 -7 -4 -10 -10z"/>
<path d="M138 2483 c7 -3 16 -2 19 1 4 3 -2 6 -13 5 -11 0 -14 -3 -6 -6z"/>
<path d="M7380 2430 c0 -5 5 -10 11 -10 5 0 7 5 4 10 -3 6 -8 10 -11 10 -2 0
-4 -4 -4 -10z"/>
<path d="M500 2382 c0 -5 7 -15 15 -22 8 -7 15 -9 15 -6 0 4 -7 14 -15 22 -8
9 -15 11 -15 6z"/>
<path d="M7396 2305 c-3 -8 -1 -15 4 -15 13 0 22 18 11 24 -5 3 -11 -1 -15 -9z"/>
<path d="M7060 2244 c0 -8 5 -12 10 -9 6 4 8 11 5 16 -9 14 -15 11 -15 -7z"/>
<path d="M7090 2236 c0 -9 5 -16 10 -16 6 0 10 4 10 9 0 6 -4 13 -10 16 -5 3
-10 -1 -10 -9z"/>
<path d="M7586 2241 c-4 -7 -5 -15 -2 -18 9 -9 19 4 14 18 -4 11 -6 11 -12 0z"/>
<path d="M313 2170 c-31 -12 -29 -17 6 -18 22 0 28 3 24 14 -3 8 -6 14 -7 13
0 0 -11 -4 -23 -9z"/>
<path d="M7126 2135 c4 -8 10 -15 15 -15 5 0 9 7 9 15 0 8 -7 15 -15 15 -9 0
-12 -6 -9 -15z"/>
<path d="M227 2099 c-4 -16 -3 -18 9 -8 16 13 19 29 5 29 -5 0 -11 -9 -14 -21z"/>
<path d="M116 2081 c-4 -7 -5 -15 -2 -18 9 -9 19 4 14 18 -4 11 -6 11 -12 0z"/>
<path d="M7540 2040 c0 -5 5 -10 11 -10 5 0 7 5 4 10 -3 6 -8 10 -11 10 -2 0
-4 -4 -4 -10z"/>
<path d="M226 2002 c-3 -6 -1 -14 5 -17 14 -9 20 -2 10 14 -6 8 -11 9 -15 3z"/>
<path d="M700 1844 c0 -8 5 -12 10 -9 6 3 10 10 10 16 0 5 -4 9 -10 9 -5 0
-10 -7 -10 -16z"/>
<path d="M7360 1510 c0 -5 5 -10 10 -10 6 0 10 5 10 10 0 6 -4 10 -10 10 -5 0
-10 -4 -10 -10z"/>
<path d="M160 1475 c0 -16 16 -20 24 -6 3 5 -1 11 -9 15 -9 3 -15 0 -15 -9z"/>
<path d="M7491 1454 c0 -11 3 -14 6 -6 3 7 2 16 -1 19 -3 4 -6 -2 -5 -13z"/>
<path d="M630 1420 c0 -5 5 -10 10 -10 6 0 10 5 10 10 0 6 -4 10 -10 10 -5 0
-10 -4 -10 -10z"/>
<path d="M7596 1267 c3 -10 9 -15 12 -12 3 3 0 11 -7 18 -10 9 -11 8 -5 -6z"/>
<path d="M324 1175 c-16 -12 -16 -14 -3 -15 9 0 22 7 29 15 16 19 0 19 -26 0z"/>
<path d="M6345 1171 c-3 -5 -1 -12 5 -16 5 -3 10 1 10 9 0 18 -6 21 -15 7z"/>
<path d="M7570 1150 c0 -5 5 -10 11 -10 5 0 7 5 4 10 -3 6 -8 10 -11 10 -2 0
-4 -4 -4 -10z"/>
<path d="M7455 1110 c3 -5 8 -10 11 -10 2 0 4 5 4 10 0 6 -5 10 -11 10 -5 0
-7 -4 -4 -10z"/>
<path d="M20 1100 c0 -5 5 -10 10 -10 6 0 10 5 10 10 0 6 -4 10 -10 10 -5 0
-10 -4 -10 -10z"/>
<path d="M515 1081 c-3 -5 -1 -12 5 -16 5 -3 10 1 10 9 0 18 -6 21 -15 7z"/>
<path d="M7030 1024 c0 -8 5 -12 10 -9 6 3 10 10 10 16 0 5 -4 9 -10 9 -5 0
-10 -7 -10 -16z"/>
<path d="M10 950 c0 -13 18 -22 24 -11 3 5 -1 11 -9 15 -8 3 -15 1 -15 -4z"/>
<path d="M55 940 c3 -5 8 -10 11 -10 2 0 4 5 4 10 0 6 -5 10 -11 10 -5 0 -7
-4 -4 -10z"/>
<path d="M5895 940 c3 -5 12 -10 20 -10 8 0 17 5 20 10 4 6 -5 10 -20 10 -15
0 -24 -4 -20 -10z"/>
<path d="M170 920 c0 -5 5 -10 11 -10 5 0 7 5 4 10 -3 6 -8 10 -11 10 -2 0 -4
-4 -4 -10z"/>
<path d="M4805 920 c3 -5 11 -10 16 -10 6 0 7 5 4 10 -3 6 -11 10 -16 10 -6 0
-7 -4 -4 -10z"/>
<path d="M7470 920 c0 -5 5 -10 10 -10 6 0 10 5 10 10 0 6 -4 10 -10 10 -5 0
-10 -4 -10 -10z"/>
<path d="M5942 898 c3 -7 13 -15 24 -17 16 -3 17 -1 5 13 -16 19 -34 21 -29 4z"/>
<path d="M1839 868 c0 -2 -2 -16 -3 -32 -1 -16 -7 -31 -14 -34 -14 -4 -17 -52
-3 -52 5 0 12 8 16 18 9 23 18 102 11 102 -3 0 -6 -1 -7 -2z"/>
<path d="M130 835 c0 -8 5 -15 10 -15 6 0 10 7 10 15 0 8 -4 15 -10 15 -5 0
-10 -7 -10 -15z"/>
<path d="M275 840 c3 -5 8 -10 11 -10 2 0 4 5 4 10 0 6 -5 10 -11 10 -5 0 -7
-4 -4 -10z"/>
<path d="M6855 840 c-3 -5 -2 -10 4 -10 5 0 13 5 16 10 3 6 2 10 -4 10 -5 0
-13 -4 -16 -10z"/>
<path d="M7326 825 c-3 -9 1 -18 10 -22 19 -7 28 2 21 22 -8 19 -23 19 -31 0z"/>
<path d="M5586 811 c-4 -5 -2 -12 3 -15 5 -4 12 -2 15 3 4 5 2 12 -3 15 -5 4
-12 2 -15 -3z"/>
<path d="M7510 805 c0 -8 7 -15 15 -15 8 0 15 7 15 15 0 8 -7 15 -15 15 -8 0
-15 -7 -15 -15z"/>
<path d="M5230 784 c0 -8 5 -12 10 -9 6 4 8 11 5 16 -9 14 -15 11 -15 -7z"/>
<path d="M260 756 c0 -8 4 -17 9 -20 5 -4 7 3 4 14 -6 23 -13 26 -13 6z"/>
<path d="M365 760 c3 -5 8 -10 11 -10 2 0 4 5 4 10 0 6 -5 10 -11 10 -5 0 -7
-4 -4 -10z"/>
<path d="M30 749 c0 -5 5 -7 10 -4 6 3 10 8 10 11 0 2 -4 4 -10 4 -5 0 -10 -5
-10 -11z"/>
<path d="M5956 751 c-4 -5 3 -7 14 -4 23 6 26 13 6 13 -8 0 -17 -4 -20 -9z"/>
<path d="M930 740 c0 -5 5 -10 11 -10 5 0 7 5 4 10 -3 6 -8 10 -11 10 -2 0 -4
-4 -4 -10z"/>
<path d="M3060 719 c0 -5 5 -7 10 -4 6 3 10 8 10 11 0 2 -4 4 -10 4 -5 0 -10
-5 -10 -11z"/>
<path d="M226 711 c-3 -5 1 -12 10 -15 20 -8 29 -1 19 13 -8 13 -22 14 -29 2z"/>
<path d="M7527 706 c-4 -10 -1 -13 7 -10 8 3 17 1 21 -5 10 -18 25 -12 25 9 0
24 -45 29 -53 6z"/>
<path d="M6320 701 c0 -6 5 -13 10 -16 6 -3 10 1 10 9 0 9 -4 16 -10 16 -5 0
-10 -4 -10 -9z"/>
<path d="M6860 690 c0 -5 5 -10 10 -10 6 0 10 5 10 10 0 6 -4 10 -10 10 -5 0
-10 -4 -10 -10z"/>
<path d="M5580 681 c0 -17 18 -21 24 -6 3 9 0 15 -9 15 -8 0 -15 -4 -15 -9z"/>
<path d="M7390 680 c0 -5 5 -10 11 -10 5 0 7 5 4 10 -3 6 -8 10 -11 10 -2 0
-4 -4 -4 -10z"/>
<path d="M5485 670 c-3 -5 -1 -10 4 -10 6 0 11 5 11 10 0 6 -2 10 -4 10 -3 0
-8 -4 -11 -10z"/>
<path d="M5858 663 c6 -2 18 -2 25 0 6 3 1 5 -13 5 -14 0 -19 -2 -12 -5z"/>
<path d="M7216 661 c-4 -7 -5 -15 -2 -18 9 -9 19 4 14 18 -4 11 -6 11 -12 0z"/>
<path d="M4540 640 c0 -5 5 -10 10 -10 6 0 10 5 10 10 0 6 -4 10 -10 10 -5 0
-10 -4 -10 -10z"/>
<path d="M5077 643 c-4 -3 -7 -11 -7 -17 0 -6 5 -5 12 2 6 6 9 14 7 17 -3 3
-9 2 -12 -2z"/>
<path d="M7536 642 c-3 -6 -1 -14 5 -17 14 -9 20 -2 10 14 -6 8 -11 9 -15 3z"/>
<path d="M1425 629 c-4 -6 -5 -13 -2 -16 7 -7 27 6 27 18 0 12 -17 12 -25 -2z"/>
<path d="M1790 611 c-7 -15 -7 -21 0 -21 12 0 25 28 17 36 -3 3 -10 -4 -17
-15z"/>
<path d="M6030 610 c0 -5 7 -7 15 -4 8 4 15 8 15 10 0 2 -7 4 -15 4 -8 0 -15
-4 -15 -10z"/>
<path d="M6635 609 c-10 -15 3 -25 16 -12 7 7 7 13 1 17 -6 3 -14 1 -17 -5z"/>
<path d="M6870 600 c19 -13 30 -13 30 0 0 6 -10 10 -22 10 -19 0 -20 -2 -8
-10z"/>
<path d="M6795 590 c-3 -5 -1 -10 4 -10 6 0 11 5 11 10 0 6 -2 10 -4 10 -3 0
-8 -4 -11 -10z"/>
<path d="M1490 580 c0 -5 5 -10 11 -10 5 0 7 5 4 10 -3 6 -8 10 -11 10 -2 0
-4 -4 -4 -10z"/>
<path d="M1767 574 c-3 -4 1 -13 9 -21 18 -18 27 -13 18 11 -6 17 -16 20 -27
10z"/>
<path d="M4305 570 c-3 -5 -1 -10 4 -10 6 0 11 5 11 10 0 6 -2 10 -4 10 -3 0
-8 -4 -11 -10z"/>
<path d="M5625 570 c-3 -5 -1 -10 4 -10 6 0 11 5 11 10 0 6 -2 10 -4 10 -3 0
-8 -4 -11 -10z"/>
<path d="M7485 570 c-3 -5 -1 -10 4 -10 6 0 11 5 11 10 0 6 -2 10 -4 10 -3 0
-8 -4 -11 -10z"/>
<path d="M2120 561 c0 -6 5 -13 10 -16 6 -3 10 1 10 9 0 9 -4 16 -10 16 -5 0
-10 -4 -10 -9z"/>
<path d="M6095 560 c-3 -5 1 -10 10 -10 9 0 13 5 10 10 -3 6 -8 10 -10 10 -2
0 -7 -4 -10 -10z"/>
<path d="M7530 559 c0 -5 5 -7 10 -4 6 3 10 8 10 11 0 2 -4 4 -10 4 -5 0 -10
-5 -10 -11z"/>
<path d="M2908 553 c7 -3 16 -2 19 1 4 3 -2 6 -13 5 -11 0 -14 -3 -6 -6z"/>
<path d="M3905 530 c-3 -5 -1 -10 4 -10 6 0 11 5 11 10 0 6 -2 10 -4 10 -3 0
-8 -4 -11 -10z"/>
<path d="M6225 510 c-3 -5 -1 -10 4 -10 6 0 11 5 11 10 0 6 -2 10 -4 10 -3 0
-8 -4 -11 -10z"/>
<path d="M6410 495 c0 -8 5 -15 10 -15 6 0 10 7 10 15 0 8 -4 15 -10 15 -5 0
-10 -7 -10 -15z"/>
<path d="M1756 483 c-4 -9 -2 -21 4 -27 7 -7 10 -2 10 17 0 31 -5 34 -14 10z"/>
<path d="M6820 492 c0 -10 22 -32 32 -32 15 0 8 15 -12 28 -11 7 -20 9 -20 4z"/>
<path d="M1875 480 c3 -5 8 -10 11 -10 2 0 4 5 4 10 0 6 -5 10 -11 10 -5 0 -7
-4 -4 -10z"/>
<path d="M1926 471 c-4 -7 -5 -15 -2 -18 9 -9 19 4 14 18 -4 11 -6 11 -12 0z"/>
<path d="M5465 450 c4 -6 11 -8 16 -5 14 9 11 15 -7 15 -8 0 -12 -5 -9 -10z"/>
<path d="M5990 441 c0 -6 5 -13 10 -16 6 -3 10 1 10 9 0 9 -4 16 -10 16 -5 0
-10 -4 -10 -9z"/>
<path d="M1750 425 c-10 -12 -10 -19 -2 -27 9 -9 12 -8 12 5 0 11 5 14 16 10
11 -4 15 -2 12 7 -7 21 -23 23 -38 5z"/>
<path d="M3861 424 c0 -11 3 -14 6 -6 3 7 2 16 -1 19 -3 4 -6 -2 -5 -13z"/>
<path d="M6197 426 c-8 -21 2 -46 19 -46 18 0 18 21 1 44 -12 17 -14 17 -20 2z"/>
<path d="M2220 412 c0 -12 3 -12 15 -2 8 7 15 13 15 15 0 1 -7 2 -15 2 -8 0
-15 -7 -15 -15z"/>
<path d="M3060 404 c0 -8 5 -12 10 -9 6 3 10 10 10 16 0 5 -4 9 -10 9 -5 0
-10 -7 -10 -16z"/>
<path d="M6560 403 c0 -13 5 -23 10 -23 13 0 13 11 0 30 -8 12 -10 11 -10 -7z"/>
<path d="M5366 395 c-3 -8 -1 -15 4 -15 6 0 10 7 10 15 0 8 -2 15 -4 15 -2 0
-6 -7 -10 -15z"/>
<path d="M5995 400 c-3 -5 1 -10 10 -10 9 0 13 5 10 10 -3 6 -8 10 -10 10 -2
0 -7 -4 -10 -10z"/>
<path d="M805 370 c3 -5 8 -10 11 -10 2 0 4 5 4 10 0 6 -5 10 -11 10 -5 0 -7
-4 -4 -10z"/>
<path d="M4108 373 c6 -2 18 -2 25 0 6 3 1 5 -13 5 -14 0 -19 -2 -12 -5z"/>
<path d="M6840 369 c0 -5 5 -7 10 -4 6 3 10 8 10 11 0 2 -4 4 -10 4 -5 0 -10
-5 -10 -11z"/>
<path d="M1757 359 c7 -7 15 -10 18 -7 3 3 -2 9 -12 12 -14 6 -15 5 -6 -5z"/>
<path d="M3405 360 c3 -5 11 -10 16 -10 6 0 7 5 4 10 -3 6 -11 10 -16 10 -6 0
-7 -4 -4 -10z"/>
<path d="M6740 360 c0 -5 5 -10 10 -10 6 0 10 5 10 10 0 6 -4 10 -10 10 -5 0
-10 -4 -10 -10z"/>
<path d="M1916 341 c-3 -5 1 -14 9 -21 12 -10 15 -10 15 3 0 19 -16 31 -24 18z"/>
<path d="M307 324 c3 -8 14 -14 25 -14 23 0 16 16 -11 23 -14 3 -18 1 -14 -9z"/>
<path d="M2076 323 c-6 -14 -5 -15 5 -6 7 7 10 15 7 18 -3 3 -9 -2 -12 -12z"/>
<path d="M3581 314 c0 -11 3 -14 6 -6 3 7 2 16 -1 19 -3 4 -6 -2 -5 -13z"/>
<path d="M7400 310 c6 -11 15 -20 21 -20 6 0 6 7 -1 20 -6 11 -15 20 -21 20
-6 0 -6 -7 1 -20z"/>
<path d="M2708 313 c7 -3 16 -2 19 1 4 3 -2 6 -13 5 -11 0 -14 -3 -6 -6z"/>
<path d="M6176 304 c-10 -25 1 -29 14 -5 6 12 7 21 1 21 -5 0 -12 -7 -15 -16z"/>
<path d="M3697 303 c-3 -4 1 -17 9 -28 10 -13 14 -15 14 -4 0 20 -16 43 -23
32z"/>
<path d="M6810 302 c0 -5 7 -13 16 -16 10 -4 14 -1 12 6 -5 15 -28 23 -28 10z"/>
<path d="M6914 299 c-3 -6 -1 -16 5 -22 8 -8 11 -5 11 11 0 24 -5 28 -16 11z"/>
<path d="M30 289 c0 -5 5 -7 10 -4 6 3 10 8 10 11 0 2 -4 4 -10 4 -5 0 -10 -5
-10 -11z"/>
<path d="M1747 283 c-10 -9 -8 -33 2 -33 5 0 11 9 14 20 5 20 -3 26 -16 13z"/>
<path d="M4640 279 c0 -5 5 -7 10 -4 6 3 10 8 10 11 0 2 -4 4 -10 4 -5 0 -10
-5 -10 -11z"/>
<path d="M6690 286 c0 -2 7 -6 15 -10 8 -3 15 -1 15 4 0 6 -7 10 -15 10 -8 0
-15 -2 -15 -4z"/>
<path d="M7170 281 c0 -17 18 -21 24 -6 3 9 0 15 -9 15 -8 0 -15 -4 -15 -9z"/>
<path d="M2116 267 c3 -10 9 -15 12 -12 3 3 0 11 -7 18 -10 9 -11 8 -5 -6z"/>
<path d="M740 260 c0 -5 5 -10 10 -10 6 0 10 5 10 10 0 6 -4 10 -10 10 -5 0
-10 -4 -10 -10z"/>
<path d="M855 260 c3 -5 8 -10 11 -10 2 0 4 5 4 10 0 6 -5 10 -11 10 -5 0 -7
-4 -4 -10z"/>
<path d="M7230 243 c0 -13 5 -23 10 -23 13 0 13 11 0 30 -8 12 -10 11 -10 -7z"/>
<path d="M687 231 c-3 -12 -1 -21 3 -21 15 0 23 21 12 32 -6 6 -11 2 -15 -11z"/>
<path d="M911 234 c0 -11 3 -14 6 -6 3 7 2 16 -1 19 -3 4 -6 -2 -5 -13z"/>
<path d="M2945 230 c3 -5 8 -10 11 -10 2 0 4 5 4 10 0 6 -5 10 -11 10 -5 0 -7
-4 -4 -10z"/>
<path d="M11 210 c-16 -9 -6 -30 15 -30 15 0 20 25 6 34 -4 2 -14 1 -21 -4z"/>
<path d="M240 213 c1 -18 19 -35 29 -28 9 5 9 10 0 21 -12 15 -29 19 -29 7z"/>
<path d="M2655 210 c3 -5 8 -10 11 -10 2 0 4 5 4 10 0 6 -5 10 -11 10 -5 0 -7
-4 -4 -10z"/>
<path d="M470 200 c0 -5 5 -10 10 -10 6 0 10 5 10 10 0 6 -4 10 -10 10 -5 0
-10 -4 -10 -10z"/>
<path d="M860 200 c0 -5 4 -10 9 -10 6 0 13 5 16 10 3 6 -1 10 -9 10 -9 0 -16
-4 -16 -10z"/>
<path d="M3790 200 c0 -5 5 -10 10 -10 6 0 10 5 10 10 0 6 -4 10 -10 10 -5 0
-10 -4 -10 -10z"/>
<path d="M5320 200 c-13 -8 -13 -10 2 -10 9 0 20 5 23 10 8 13 -5 13 -25 0z"/>
<path d="M7500 190 c0 -5 5 -10 11 -10 5 0 7 5 4 10 -3 6 -8 10 -11 10 -2 0
-4 -4 -4 -10z"/>
<path d="M346 181 c-4 -7 -5 -15 -2 -18 9 -9 19 4 14 18 -4 11 -6 11 -12 0z"/>
<path d="M3680 176 c0 -9 5 -16 10 -16 6 0 10 4 10 9 0 6 -4 13 -10 16 -5 3
-10 -1 -10 -9z"/>
<path d="M4290 176 c0 -14 29 -31 38 -22 5 5 -23 36 -32 36 -3 0 -6 -6 -6 -14z"/>
<path d="M845 160 c4 -11 2 -20 -4 -20 -15 0 -51 -37 -51 -52 0 -6 9 -2 20 10
12 12 27 22 34 22 15 0 25 27 19 48 -3 6 -9 12 -15 12 -5 0 -6 -9 -3 -20z"/>
<path d="M1020 164 c0 -8 5 -12 10 -9 6 3 10 10 10 16 0 5 -4 9 -10 9 -5 0
-10 -7 -10 -16z"/>
<path d="M2046 159 c20 -22 46 -25 38 -5 -3 8 -16 16 -30 19 -24 4 -24 3 -8
-14z"/>
<path d="M6043 169 c14 -8 22 -8 30 0 8 8 3 11 -18 11 -26 -1 -28 -2 -12 -11z"/>
<path d="M445 160 c-3 -6 1 -13 10 -16 19 -8 30 0 20 15 -8 14 -22 14 -30 1z"/>
<path d="M2120 159 c0 -5 5 -7 10 -4 6 3 10 8 10 11 0 2 -4 4 -10 4 -5 0 -10
-5 -10 -11z"/>
<path d="M5867 156 c-4 -10 -1 -13 9 -9 15 6 19 23 5 23 -5 0 -11 -7 -14 -14z"/>
<path d="M761 144 c0 -11 3 -14 6 -6 3 7 2 16 -1 19 -3 4 -6 -2 -5 -13z"/>
<path d="M2310 153 c0 -5 5 -15 10 -23 8 -12 10 -11 10 8 0 12 -4 22 -10 22
-5 0 -10 -3 -10 -7z"/>
<path d="M910 143 c1 -13 29 -47 35 -42 9 10 -8 49 -21 49 -8 0 -14 -3 -14 -7z"/>
<path d="M0 129 c0 -5 5 -7 10 -4 5 3 10 8 10 11 0 2 -4 4 -10 4 -5 0 -10 -5
-10 -11z"/>
<path d="M667 121 c3 -12 -3 -24 -18 -35 -13 -9 -18 -16 -12 -16 7 0 15 5 19
11 3 6 19 9 35 5 36 -7 36 0 3 30 -30 29 -34 29 -27 5z"/>
<path d="M3676 128 c3 -4 9 -8 15 -8 5 0 9 4 9 8 0 5 -7 9 -15 9 -8 0 -12 -4
-9 -9z"/>
<path d="M130 119 c0 -5 5 -7 10 -4 6 3 10 8 10 11 0 2 -4 4 -10 4 -5 0 -10
-5 -10 -11z"/>
<path d="M391 121 c-9 -6 -10 -11 -2 -15 6 -4 11 -2 11 4 0 6 5 8 10 5 6 -3
10 -1 10 4 0 13 -10 14 -29 2z"/>
<path d="M5885 120 c-3 -5 -4 -10 -1 -10 2 0 11 -3 20 -6 11 -4 16 -1 16 10 0
18 -25 22 -35 6z"/>
<path d="M43 108 c-12 -20 -14 -48 -4 -48 5 0 13 9 16 20 3 11 11 20 16 20 6
0 7 5 4 10 -8 14 -22 13 -32 -2z"/>
<path d="M1050 116 c0 -2 7 -7 16 -10 8 -3 12 -2 9 4 -6 10 -25 14 -25 6z"/>
<path d="M5815 110 c3 -5 8 -10 11 -10 2 0 4 5 4 10 0 6 -5 10 -11 10 -5 0 -7
-4 -4 -10z"/>
<path d="M7298 90 c2 -17 9 -30 14 -30 6 0 7 7 4 16 -3 9 -6 22 -6 30 0 8 -4
14 -8 14 -5 0 -7 -13 -4 -30z"/>
<path d="M180 100 c0 -5 7 -10 15 -10 8 0 15 5 15 10 0 6 -7 10 -15 10 -8 0
-15 -4 -15 -10z"/>
<path d="M440 102 c0 -5 9 -12 21 -15 13 -3 19 -1 16 6 -5 15 -37 22 -37 9z"/>
<path d="M756 101 c-4 -7 -5 -15 -2 -18 9 -9 19 4 14 18 -4 11 -6 11 -12 0z"/>
<path d="M1430 94 c0 -8 5 -12 10 -9 6 4 8 11 5 16 -9 14 -15 11 -15 -7z"/>
<path d="M1517 102 c-39 -3 -55 -24 -63 -80 -3 -22 -1 -22 102 -22 63 0 104 4
104 10 0 6 -5 10 -12 10 -6 0 -8 3 -4 7 4 4 19 7 34 8 38 0 34 24 -8 48 -22
12 -45 17 -66 14 -17 -3 -36 -2 -40 1 -5 4 -26 6 -47 4z"/>
<path d="M3228 103 c7 -3 16 -2 19 1 4 3 -2 6 -13 5 -11 0 -14 -3 -6 -6z"/>
<path d="M237 87 c-11 -29 -9 -43 4 -30 6 6 9 19 7 29 -3 18 -4 18 -11 1z"/>
<path d="M1020 90 c0 -5 5 -10 10 -10 6 0 10 5 10 10 0 6 -4 10 -10 10 -5 0
-10 -4 -10 -10z"/>
<path d="M280 75 c7 -8 16 -12 21 -9 16 9 10 20 -12 21 -17 2 -18 -1 -9 -12z"/>
<path d="M1810 79 c0 -5 5 -7 10 -4 6 3 10 8 10 11 0 2 -4 4 -10 4 -5 0 -10
-5 -10 -11z"/>
<path d="M6330 75 c0 -8 5 -15 10 -15 6 0 10 7 10 15 0 8 -4 15 -10 15 -5 0
-10 -7 -10 -15z"/>
<path d="M7455 80 c4 -6 11 -8 16 -5 14 9 11 15 -7 15 -8 0 -12 -5 -9 -10z"/>
<path d="M570 65 c0 -8 4 -15 9 -15 5 0 11 7 15 15 3 9 0 15 -9 15 -8 0 -15
-7 -15 -15z"/>
<path d="M1410 61 c0 -11 4 -21 9 -21 18 0 21 18 6 30 -13 10 -15 9 -15 -9z"/>
<path d="M2246 67 c3 -10 9 -15 12 -12 3 3 0 11 -7 18 -10 9 -11 8 -5 -6z"/>
<path d="M110 59 c0 -5 5 -7 10 -4 6 3 10 8 10 11 0 2 -4 4 -10 4 -5 0 -10 -5
-10 -11z"/>
<path d="M830 60 c0 -5 5 -10 10 -10 6 0 10 5 10 10 0 6 -4 10 -10 10 -5 0
-10 -4 -10 -10z"/>
<path d="M938 63 c7 -3 16 -2 19 1 4 3 -2 6 -13 5 -11 0 -14 -3 -6 -6z"/>
<path d="M1360 61 c0 -5 -9 -11 -20 -14 -11 -3 -20 -10 -20 -16 0 -16 16 -14
34 5 15 15 21 34 11 34 -3 0 -5 -4 -5 -9z"/>
<path d="M701 41 c-12 -12 -20 -26 -16 -29 4 -4 13 2 21 12 13 19 14 18 22 -4
7 -20 10 -21 15 -6 4 10 12 14 18 10 8 -4 9 -3 5 4 -4 7 -13 12 -21 12 -7 0
-15 5 -17 12 -3 7 -12 4 -27 -11z"/>
<path d="M1024 34 c6 -13 13 -18 15 -11 2 7 9 17 17 23 10 8 7 11 -15 11 -25
0 -27 -2 -17 -23z"/>
<path d="M6800 53 c0 -5 4 -15 10 -23 11 -18 25 -7 17 15 -6 15 -27 21 -27 8z"/>
<path d="M0 36 c0 -9 7 -16 16 -16 17 0 14 22 -4 28 -7 2 -12 -3 -12 -12z"/>
<path d="M417 43 c-11 -10 -8 -20 8 -27 10 -4 15 1 15 14 0 20 -11 26 -23 13z"/>
<path d="M868 43 c-10 -2 -18 -8 -18 -13 0 -5 -6 -7 -14 -4 -8 3 -17 1 -20 -4
-9 -16 32 -21 51 -7 15 11 21 11 34 -1 9 -8 24 -12 33 -8 23 9 20 27 -5 21
-12 -3 -22 0 -26 9 -5 14 -6 15 -35 7z"/>
<path d="M1140 34 c0 -12 4 -14 13 -7 6 6 19 13 27 16 9 3 3 6 -12 6 -20 1
-28 -4 -28 -15z"/>
<path d="M6030 40 c0 -5 5 -10 10 -10 6 0 10 5 10 10 0 6 -4 10 -10 10 -5 0
-10 -4 -10 -10z"/>
<path d="M1377 33 c-7 -11 4 -27 21 -31 8 -1 12 4 10 14 -3 19 -23 30 -31 17z"/>
<path d="M1850 31 c0 -6 5 -13 10 -16 6 -3 10 1 10 9 0 9 -4 16 -10 16 -5 0
-10 -4 -10 -9z"/>
<path d="M2195 31 c-3 -5 -1 -12 5 -16 5 -3 10 1 10 9 0 18 -6 21 -15 7z"/>
<path d="M2250 24 c0 -8 5 -12 10 -9 6 4 8 11 5 16 -9 14 -15 11 -15 -7z"/>
<path d="M5530 31 c0 -6 5 -13 10 -16 6 -3 10 1 10 9 0 9 -4 16 -10 16 -5 0
-10 -4 -10 -9z"/>
<path d="M5590 30 c0 -5 5 -10 11 -10 5 0 7 5 4 10 -3 6 -8 10 -11 10 -2 0 -4
-4 -4 -10z"/>
<path d="M6345 30 c-3 -5 -1 -10 4 -10 6 0 11 5 11 10 0 6 -2 10 -4 10 -3 0
-8 -4 -11 -10z"/>
<path d="M85 20 c-3 -5 -1 -10 4 -10 6 0 11 5 11 10 0 6 -2 10 -4 10 -3 0 -8
-4 -11 -10z"/>
<path d="M176 15 c-3 -8 -1 -15 3 -15 5 0 11 7 15 15 3 8 1 15 -3 15 -5 0 -11
-7 -15 -15z"/>
<path d="M1960 20 c0 -5 5 -10 10 -10 6 0 10 5 10 10 0 6 -4 10 -10 10 -5 0
-10 -4 -10 -10z"/>
<path d="M3570 20 c0 -5 7 -10 16 -10 8 0 12 5 9 10 -3 6 -10 10 -16 10 -5 0
-9 -4 -9 -10z"/>
<path d="M5975 20 c3 -5 8 -10 11 -10 2 0 4 5 4 10 0 6 -5 10 -11 10 -5 0 -7
-4 -4 -10z"/>
<path d="M580 10 c0 -5 5 -10 10 -10 6 0 10 5 10 10 0 6 -4 10 -10 10 -5 0
-10 -4 -10 -10z"/>
</g>
</svg>
